<?xml version="1.0" encoding="UTF-8"?>
<svg version="1.1" xmlns="http://www.w3.org/2000/svg" width="1033" height="376">
<path d="M0 0 C9.0503734 6.81760708 14.11363421 15.05637658 16 26.25 C16.93992907 35.8300463 14.81929965 44.95994163 8.6953125 52.46875 C6.41662221 54.86294993 3.95579465 56.93490837 1.3203125 58.92578125 C-0.35303077 60.2924139 -0.35303077 60.2924139 0 63.25 C1.80044849 64.70170181 1.80044849 64.70170181 4.125 66 C12.30985572 71.2295703 17.35044565 78.03771491 19.53515625 87.58984375 C21.04110865 98.2699889 19.03130101 109.26459237 13 118.25 C5.40552094 128.05378206 -5.97061841 132.46277759 -18 134.25 C-33.68542475 135.67697727 -48.97670489 133.63708796 -62 124.25 C-62.9075 123.6725 -63.815 123.095 -64.75 122.5 C-72.02919864 115.22080136 -75.03979048 106.54956903 -75.3125 96.4375 C-75.13017478 86.32381268 -72.94294725 78.74192448 -66 71.25 C-64.28645917 69.64772806 -62.54422137 68.13505931 -60.7109375 66.671875 C-58.67813758 64.98251616 -56.84772915 63.13807258 -55 61.25 C-55.58007812 60.59515625 -56.16015625 59.9403125 -56.7578125 59.265625 C-65.52503991 49.02272566 -71.42763311 39.14049097 -71.27734375 25.4140625 C-70.5757039 17.40943884 -66.67407795 9.90063135 -61 4.25 C-44.00078344 -8.8953569 -18.71667042 -11.59103447 0 0 Z M-48 17.25 C-51.83386652 22.87844234 -53.65916043 28.90647972 -52.62890625 35.6953125 C-50.82236021 43.03370449 -47.23155108 48.32427914 -41 52.6328125 C-33.93609053 56.34655902 -25.74876784 56.66549811 -18.15625 54.40234375 C-10.76569416 51.11888897 -6.73862844 46.25640468 -3.5625 38.9375 C-2.40631695 31.35807779 -2.86686767 24.3967348 -7.42578125 18.03515625 C-13.61923176 11.01181411 -19.91899478 8.88343804 -29 7.9375 C-36.64830178 8.7341981 -42.9050611 11.38751187 -48 17.25 Z M-51.1484375 79.0859375 C-55.89624931 84.63506776 -56.5361166 90.42372101 -56.26953125 97.58203125 C-55.48228404 105.37463769 -52.51167384 109.59128493 -46.44140625 114.55078125 C-38.01559635 120.41514494 -28.0622449 120.32827948 -18.16015625 118.81640625 C-10.57742989 116.93532929 -5.11094018 112.72283707 -1.0625 106.0625 C1.57150797 99.09012596 2.21482518 92.51005154 -0.6875 85.5 C-4.17162053 78.47063402 -9.84317379 73.94666376 -17.0625 71 C-29.54277416 67.93515391 -41.91251144 70.11109769 -51.1484375 79.0859375 Z " fill="#7A9DEF" transform="translate(590,60.75)"/>
<path d="M0 0 C16.22290106 17.31513598 16.63202087 41.27448965 16.13623047 63.72363281 C15.84659343 70.68945549 14.72081338 77.25608359 13 84 C12.83902832 84.64324219 12.67805664 85.28648437 12.51220703 85.94921875 C8.96608263 99.60230866 2.17804644 111.3666593 -10 119 C-10.5878125 119.38414062 -11.175625 119.76828125 -11.78125 120.1640625 C-25.85043807 128.24767495 -43.86394627 128.17811195 -59.5625 128.25 C-60.72330078 128.270625 -61.88410156 128.29125 -63.08007812 128.3125 C-64.74393555 128.32023437 -64.74393555 128.32023437 -66.44140625 128.328125 C-67.93716187 128.34214355 -67.93716187 128.34214355 -69.46313477 128.35644531 C-72 128 -72 128 -73.82470703 126.61425781 C-75.37762925 124.48132849 -75.36919807 123.11683385 -75.3125 120.5 C-75.30669922 119.33984375 -75.30669922 119.33984375 -75.30078125 118.15625 C-75 116 -75 116 -73 113 C-70.46648076 112.63905241 -68.14944415 112.46611292 -65.60546875 112.41015625 C-64.07616939 112.34706533 -62.5468726 112.28391214 -61.01757812 112.22070312 C-58.61999977 112.1392686 -56.22233965 112.06354746 -53.82446289 111.99145508 C-39.6869101 111.53530975 -25.78655059 110.23679669 -15 100 C-6.69559011 89.76469707 -4.69905499 78.7529069 -3 66 C-3.83402344 66.54269531 -4.66804688 67.08539063 -5.52734375 67.64453125 C-18.4461906 75.92801872 -30.03249052 79.42362606 -45.4140625 76.30859375 C-57.36413119 72.61858546 -66.32385835 66.7677656 -72.28125 55.59765625 C-77.40317902 44.60380146 -78.33077408 29.35154223 -74.375 17.8125 C-73.25390625 15.3125 -73.25390625 15.3125 -72 13 C-71.57589844 12.21625 -71.15179688 11.4325 -70.71484375 10.625 C-64.75353996 0.7946606 -56.26041857 -5.5366437 -45.5 -9.1875 C-29.54106191 -12.89225349 -12.78649785 -10.90115412 0 0 Z M-52 14 C-57.05825578 21.85162091 -58.93426891 29.72310453 -58 39 C-56.11845587 46.83797528 -52.97769765 53.91137167 -45.94140625 58.27734375 C-38.54775887 62.08948121 -31.51802288 63.32560318 -23.30078125 61.3515625 C-15.54398604 58.57194523 -10.28871152 54.09343115 -6.625 46.6875 C-3.07247727 37.58319933 -3.45844795 29.09284299 -7 20 C-10.93711629 12.78013578 -16.23784036 8.60678225 -24 6 C-34.23869572 3.45226856 -44.70989381 6.22388673 -52 14 Z " fill="#7A9DEF" transform="translate(476,65)"/>
<path d="M0 0 C2.71484375 -0.43359375 2.71484375 -0.43359375 5.9375 -0.4375 C7.52884766 -0.46650391 7.52884766 -0.46650391 9.15234375 -0.49609375 C12 0 12 0 13.65492249 1.5466156 C15.50245962 4.91647254 15.40854546 8.00601539 15.36889648 11.75024414 C15.37266296 12.52629501 15.37642944 13.30234589 15.38031006 14.10191345 C15.38673649 15.78356278 15.38641814 17.46524844 15.38012505 19.14689827 C15.37101801 21.80728086 15.38123284 24.46695824 15.39674377 27.12730408 C15.43686219 34.68943187 15.43804134 42.25150421 15.43579102 49.8137207 C15.43574 54.44149649 15.45486047 59.06889055 15.48512459 63.69656181 C15.49597837 66.3197703 15.48380437 68.94225928 15.47129822 71.56544495 C15.4801993 73.17002076 15.49027251 74.77459065 15.50170898 76.37915039 C15.48709373 77.475634 15.48709373 77.475634 15.47218323 78.5942688 C15.51876233 81.85997295 15.56319615 83.54863496 17.88447571 85.94729614 C20.35772926 87.17800929 22.16521564 87.45580197 24.921875 87.58203125 C25.86546875 87.62650391 26.8090625 87.67097656 27.78125 87.71679688 C29.25078125 87.76416992 29.25078125 87.76416992 30.75 87.8125 C31.71421875 87.86341797 32.6784375 87.91433594 33.671875 87.96679688 C39.52934015 88.20157299 44.41769592 87.83737551 50 86 C53.34424322 82.87151441 53.88085832 79.39552104 54.10345459 74.91989136 C54.16198865 72.36180813 54.19023111 69.80476043 54.2109375 67.24609375 C54.23898951 65.3209548 54.26765384 63.39582469 54.296875 61.47070312 C54.3382222 58.44669693 54.37512704 55.42285893 54.40136719 52.39868164 C54.42893478 49.47247688 54.47478356 46.54701363 54.5234375 43.62109375 C54.52669037 42.71685165 54.52994324 41.81260956 54.53329468 40.88096619 C54.65558754 34.64726427 54.65558754 34.64726427 56.36767578 31.4296875 C58.7213595 29.36819007 60.41556589 29.50031383 63.5 29.5625 C64.4590625 29.56378906 65.418125 29.56507812 66.40625 29.56640625 C69.44452426 30.07431053 70.15324706 30.59248175 72 33 C72.39199829 35.23876953 72.39199829 35.23876953 72.41650391 37.8828125 C72.43307037 38.87394043 72.44963684 39.86506836 72.46670532 40.88623047 C72.46995819 41.95502441 72.47321106 43.02381836 72.4765625 44.125 C72.49214203 45.22344238 72.50772156 46.32188477 72.52377319 47.45361328 C72.57137467 50.96906813 72.59907885 54.48432401 72.625 58 C72.66148016 61.51553515 72.70210913 65.03095735 72.74765015 68.54638672 C72.77488496 70.73544736 72.79623265 72.92459056 72.81118774 75.11376953 C72.82144989 76.10489746 72.83171204 77.09602539 72.84228516 78.1171875 C72.85202866 79.42598877 72.85202866 79.42598877 72.86196899 80.76123047 C72.91421581 83.17139469 72.91421581 83.17139469 74 86 C77.23708061 87.61854031 80.79294885 87.34238623 84.37109375 87.5234375 C87 88 87 88 88.82421875 89.29296875 C90.49490006 91.71850939 90.36520695 94.09040108 90.3984375 96.96484375 C89.85969994 99.71663068 89.0048118 101.03820991 87 103 C84.40625 103.50390625 84.40625 103.50390625 81.5 103.5625 C77.68322616 103.56119464 77.68322616 103.56119464 74.36328125 105.15600586 C72.44104268 107.75605383 72.61534073 109.66386907 72.59375 112.875 C72.56087891 114.59976563 72.56087891 114.59976563 72.52734375 116.359375 C72.51832031 117.56078125 72.50929688 118.7621875 72.5 120 C72.48216098 122.37513859 72.45150915 124.75022566 72.40625 127.125 C72.39916016 128.17945313 72.39207031 129.23390625 72.38476562 130.3203125 C72 133 72 133 70.60498047 134.82421875 C68.59573296 136.29615912 67.08791884 136.66376535 64.625 137 C63.49964844 137.185625 63.49964844 137.185625 62.3515625 137.375 C58.58745935 136.77474435 57.25553204 134.98261863 55 132 C54.51883424 129.25174651 54.30440098 127.051914 54.3125 124.3125 C54.27359596 122.89176998 54.22932323 121.47117683 54.1796875 120.05078125 C54.15745117 119.36193848 54.13521484 118.6730957 54.11230469 117.96337891 C53.87891286 113.88308088 52.93827865 109.96309015 52 106 C45.54992282 104.36859589 39.67688398 103.70786968 33.0390625 103.69140625 C31.16796516 103.66628191 29.29687147 103.64088346 27.42578125 103.61523438 C24.50928438 103.58635084 21.59285049 103.56229504 18.67626953 103.54370117 C15.8385683 103.522128 13.00153437 103.48274212 10.1640625 103.44140625 C8.85159042 103.44123253 8.85159042 103.44123253 7.51260376 103.4410553 C6.701008 103.42771652 5.88941223 103.41437775 5.05322266 103.40063477 C4.34090485 103.39556412 3.62858704 103.39049347 2.89468384 103.38526917 C0.392974 102.876566 -0.4011817 101.96569093 -2 100 C-2.37473011 98.1243515 -2.37473011 98.1243515 -2.3742218 95.97692871 C-2.38123611 95.16096725 -2.38825043 94.3450058 -2.39547729 93.50431824 C-2.38783356 92.61279556 -2.38018982 91.72127289 -2.37231445 90.80273438 C-2.37779045 89.39016106 -2.37779045 89.39016106 -2.38337708 87.9490509 C-2.39149529 84.83043488 -2.37786174 81.71233636 -2.36328125 78.59375 C-2.3627628 76.43046062 -2.36327992 74.26717075 -2.36479187 72.10388184 C-2.36470209 67.56771827 -2.35426065 63.03173222 -2.33618164 58.49560547 C-2.31349438 52.67454322 -2.31294978 46.85374047 -2.31969929 41.03264618 C-2.32303722 36.56489751 -2.31641248 32.09720824 -2.30657005 27.62947083 C-2.30271473 25.48281668 -2.30157121 23.33615593 -2.3031559 21.1894989 C-2.30352583 18.19195922 -2.29092635 15.19475502 -2.2746582 12.19726562 C-2.27713562 11.30574295 -2.27961304 10.41422028 -2.28216553 9.49568176 C-2.27508072 8.67972031 -2.26799591 7.86375885 -2.26069641 7.02307129 C-2.25864354 6.31442177 -2.25659067 5.60577225 -2.25447559 4.8756485 C-2 3 -2 3 0 0 Z " fill="#7A9DEF" transform="translate(636,56)"/>
<path d="M0 0 C1.97338867 -0.38095093 1.97338867 -0.38095093 4.41796875 -0.38818359 C5.33231689 -0.39764008 6.24666504 -0.40709656 7.1887207 -0.4168396 C8.17831787 -0.41076691 9.16791504 -0.40469421 10.1875 -0.3984375 C11.20094482 -0.40130768 12.21438965 -0.40417786 13.25854492 -0.40713501 C15.40381427 -0.40917887 17.54910211 -0.40362661 19.69433594 -0.39111328 C22.98675016 -0.37506459 26.27793667 -0.39095155 29.5703125 -0.41015625 C31.65104439 -0.40817388 33.73177551 -0.40433032 35.8125 -0.3984375 C36.80209717 -0.40451019 37.79169434 -0.41058289 38.8112793 -0.4168396 C40.18280151 -0.40265488 40.18280151 -0.40265488 41.58203125 -0.38818359 C42.38874268 -0.38579681 43.1954541 -0.38341003 44.02661133 -0.38095093 C44.67782959 -0.25523712 45.32904785 -0.12952332 46 0 C48.12280918 3.18421377 48.25204741 3.97495963 48.26501465 7.62376404 C48.27742439 9.04747818 48.27742439 9.04747818 48.29008484 10.49995422 C48.28861198 12.05929939 48.28861198 12.05929939 48.28710938 13.65014648 C48.29394241 14.74631287 48.30077545 15.84247925 48.30781555 16.97186279 C48.32141929 19.35524374 48.33046244 21.73865401 48.33552551 24.12206841 C48.34379469 27.89146545 48.36428135 31.6606179 48.38806152 35.4299469 C48.43635236 43.43243226 48.46934879 51.43493247 48.5 59.4375 C48.53550851 68.70532603 48.57750093 77.97302141 48.63594055 87.24073982 C48.65604877 90.95888452 48.66433695 94.67693853 48.67224121 98.39512634 C48.68521124 100.6702406 48.6987312 102.94535182 48.71289062 105.22045898 C48.71141777 106.77676781 48.71141777 106.77676781 48.70991516 108.36451721 C48.72232491 109.79246109 48.72232491 109.79246109 48.73498535 111.24925232 C48.73791847 112.07496955 48.74085159 112.90068678 48.7438736 113.75142574 C49.03096309 116.27182985 49.61601232 117.87826962 51 120 C56.73559404 121.7082865 63.07929022 121.02527871 69.01171875 120.87304688 C73.77315578 120.80870313 77.51982431 121.14538182 82 123 C82.91377136 127.66023391 83.40616073 130.78921872 81 135 C77.42623281 137.38251146 74.87274933 137.2959197 70.74633789 137.29052734 C70.01105362 137.29724457 69.27576935 137.30396179 68.51820374 137.31088257 C66.08628595 137.32988886 63.6546437 137.33378793 61.22265625 137.3359375 C59.53258653 137.34236318 57.84251793 137.34909136 56.15245056 137.35610962 C52.60917583 137.36808864 49.06599864 137.37178976 45.52270508 137.37060547 C40.98174488 137.37040214 36.44140959 137.39771508 31.90059757 137.43214989 C28.40987778 137.45438308 24.91930928 137.45844413 21.42852592 137.45738602 C19.75436688 137.45974697 18.08020397 137.46859827 16.40611458 137.48405075 C14.06464938 137.50364096 11.72454358 137.49790153 9.38305664 137.48583984 C8.69149475 137.49707886 7.99993286 137.50831787 7.28741455 137.51989746 C3.9283656 137.47591171 2.2549783 137.1978187 -0.43263245 135.11270142 C-2.27035852 132.6355757 -2.48718946 131.42451355 -2.375 128.375 C-2.36210937 127.59898437 -2.34921875 126.82296875 -2.3359375 126.0234375 C-2 124 -2 124 0 122 C5.24734774 120.81909004 10.43933203 120.9522454 15.75 121.5625 C20.02657861 122.02156776 23.0842665 122.05576009 27 120 C28.96625534 118.20006025 29.89794271 116.7573758 30.25669289 114.09506035 C30.34464717 111.62066163 30.32789853 109.16476878 30.28051758 106.68920898 C30.27136322 105.27641663 30.27136322 105.27641663 30.26202393 103.83508301 C30.23784753 100.72174278 30.19167687 97.60916448 30.14453125 94.49609375 C30.12157013 92.33424444 30.09966771 90.17238365 30.07878113 88.01051331 C30.03172249 83.48022511 29.97421382 78.95022751 29.90893555 74.42016602 C29.82566864 68.60715854 29.76459801 62.79418109 29.71085072 56.98083401 C29.66778086 52.51729774 29.61486535 48.05392202 29.55875206 43.5905323 C29.53263478 41.44669673 29.50916192 39.30282729 29.48835182 37.15893364 C29.45745153 34.16619425 29.41377118 31.17391535 29.36645508 28.18139648 C29.3561451 26.84646904 29.3561451 26.84646904 29.34562683 25.48457336 C29.33012787 24.67005707 29.31462891 23.85554077 29.29866028 23.01634216 C29.28923306 22.30899146 29.27980585 21.60164076 29.27009296 20.87285519 C29.089162 18.66763312 29.089162 18.66763312 27 16 C24.43674837 15.50629542 24.43674837 15.50629542 21.44140625 15.5234375 C20.33345703 15.4925 19.22550781 15.4615625 18.08398438 15.4296875 C16.92189453 15.41164063 15.75980469 15.39359375 14.5625 15.375 C12.27204998 15.32401614 9.98167524 15.26949173 7.69140625 15.2109375 C6.67248291 15.19337402 5.65355957 15.17581055 4.60375977 15.15771484 C2 15 2 15 -1 14 C-2.16983345 11.6603331 -2.1661241 10.16608473 -2.1875 7.5625 C-2.20167969 6.78003906 -2.21585937 5.99757813 -2.23046875 5.19140625 C-2 3 -2 3 0 0 Z " fill="#7A9DEF" transform="translate(292,56)"/>
<path d="M0 0 C6.78716725 5.29730127 10.759999 11.79714353 13 20.125 C12.76171875 22.3515625 12.76171875 22.3515625 12 24.125 C7.46816611 26.39091695 1.95872258 27.44494774 -3 26.125 C-5.5530372 23.80196615 -7.21888905 21.0617127 -9 18.125 C-13.06895145 12.24762569 -17.22976794 9.9629311 -24 8.125 C-30.70697183 7.01959168 -37.22660233 8.87433171 -42.984375 12.30859375 C-49.86158604 17.49589182 -51.72969371 24.96777038 -53.25 33.125 C-54.93166159 45.20238781 -54.51409538 59.02421002 -48.421875 69.95703125 C-45.10223648 73.98695279 -41.2300668 77.17323873 -36 78.125 C-28.08060857 78.87157747 -20.50560196 79.23427764 -14 74.125 C-10.38401243 70.42491969 -7.78378399 66.31437093 -5.2109375 61.859375 C-4 60.125 -4 60.125 -1 58.125 C4.69817438 57.65793653 7.98428297 58.11556978 13 61.125 C13.45078705 69.01955275 9.81825522 74.56743917 5.01953125 80.625 C-1.46270951 87.61495725 -10.46467685 93.57884216 -20.22314453 94.28613281 C-22.85722618 94.33203576 -25.49055179 94.36028241 -28.125 94.375 C-29.02476562 94.395625 -29.92453125 94.41625 -30.8515625 94.4375 C-42.30698087 94.50333574 -52.3161955 90.93756928 -61.0078125 83.37890625 C-70.79167039 73.19268191 -74.0254359 57.66275205 -74.3125 43.9375 C-73.85170139 29.57594317 -70.78063853 15.83628227 -60.44140625 5.34375 C-43.35749301 -10.18211035 -19.38628222 -13.35044765 0 0 Z " fill="#C7C7C7" transform="translate(708,235.875)"/>
<path d="M0 0 C4.37028709 2.78133193 5.96281753 5.41335556 7.73901367 10.21801758 C7.97061691 10.83158615 8.20222015 11.44515472 8.44084167 12.07731628 C9.19804551 14.09454182 9.9331084 16.11907089 10.66796875 18.14453125 C11.19285032 19.55741201 11.71901969 20.96981497 12.24641418 22.38175964 C13.62885057 26.09437659 14.99227015 29.8137102 16.35223389 33.53460693 C17.46136828 36.55937893 18.58387346 39.57909947 19.70716381 42.59863758 C21.05274505 46.21644658 22.39251211 49.83639643 23.73046875 53.45703125 C23.9833132 54.14098276 24.23615765 54.82493427 24.49666405 55.52961159 C25.2172211 57.48323537 25.93388924 59.43823789 26.64916992 61.39379883 C27.25942268 63.05781487 27.25942268 63.05781487 27.88200378 64.75544739 C29.05070576 68.14715391 30.04472196 71.54302702 31 75 C31.66 75 32.32 75 33 75 C33.12420822 74.12680115 33.24841644 73.25360229 33.37638855 72.35394287 C33.97193207 69.15095657 34.83024454 66.37977346 35.9777832 63.33691406 C36.3852327 62.24848206 36.79268219 61.16005005 37.21247864 60.03863525 C37.6541185 58.87604187 38.09575836 57.71344849 38.55078125 56.515625 C39.00599655 55.30485291 39.46121185 54.09408081 39.93022156 52.84661865 C41.13866581 49.63301544 42.35384668 46.4219995 43.5703125 43.21142578 C44.55322025 40.6138334 45.53129844 38.01443626 46.50910664 35.41492081 C51.76240894 21.45047105 51.76240894 21.45047105 53.84976196 16.01477051 C54.60276976 14.0411393 55.33897799 12.0609964 56.0562439 10.07409668 C56.38726105 9.18307251 56.7182782 8.29204834 57.05932617 7.37402344 C57.33951096 6.5981488 57.61969574 5.82227417 57.90837097 5.02288818 C59.24826022 2.53995116 60.58707875 1.43893954 63 0 C67.82634558 -0.44688385 71.50383693 0.24539978 76 2 C76.40231038 5.92252623 75.88734832 8.59185717 74.23071289 12.08886719 C71.96031796 17.03226582 69.99102238 22.05709908 68.05859375 27.140625 C67.69416672 28.09376083 67.32973969 29.04689667 66.95426941 30.02891541 C66.17922743 32.05706216 65.40529059 34.08563153 64.63238525 36.11459351 C63.42712887 39.27721409 62.21766955 42.43820078 61.00732422 45.59887695 C57.46738616 54.85156928 53.94337917 64.10888979 50.51171875 73.40234375 C50.009342 74.75558808 49.50682571 76.10878061 49.00415039 77.46191406 C48.10964032 79.87831053 47.22414775 82.2980717 46.34936523 84.72167969 C45.95821533 85.77645508 45.56706543 86.83123047 45.1640625 87.91796875 C44.83873535 88.81281982 44.5134082 89.7076709 44.17822266 90.62963867 C42.81863968 93.36486269 41.32111203 95.02653014 39 97 C33.8219613 98.7260129 28.89657662 98.57255143 23.6875 97 C17.43525535 92.34716677 15.21678243 82.59935172 12.5859375 75.50390625 C12.17139313 74.39812729 11.75684875 73.29234833 11.32974243 72.15306091 C10.0073583 68.62440512 8.69068605 65.09365814 7.375 61.5625 C2.16880959 47.60900701 -3.06982176 33.6744077 -8.5859375 19.83984375 C-9.2285704 18.22366905 -9.2285704 18.22366905 -9.88418579 16.57484436 C-10.27866913 15.59229172 -10.67315247 14.60973907 -11.07958984 13.59741211 C-11.4272641 12.73071396 -11.77493835 11.86401581 -12.13314819 10.97105408 C-12.84112565 9.03800452 -12.84112565 9.03800452 -14 8 C-14.04063832 6.33382885 -14.042721 4.66611905 -14 3 C-8.97505315 -0.01496811 -5.71799925 -0.63533325 0 0 Z " fill="#C7C7C7" transform="translate(530,230)"/>
<path d="M0 0 C2.43749645 1.95111527 2.98522866 2.95568598 4 6 C4.11880354 7.8096818 4.1751965 9.62396447 4.1875 11.4375 C4.20167969 12.38496094 4.21585937 13.33242188 4.23046875 14.30859375 C3.99328354 17.07843458 3.5049543 18.68184232 2 21 C-1.01858766 22.50929383 -4.12900954 22.22510073 -7.4375 22.25 C-8.11876953 22.270625 -8.80003906 22.29125 -9.50195312 22.3125 C-14.50778709 22.35172299 -14.50778709 22.35172299 -16.9296875 20.62109375 C-19.65421516 16.49452813 -19.51374414 10.78848314 -19 6 C-17.9375 3.125 -17.9375 3.125 -16 1 C-10.79904158 -1.28842171 -5.45850345 -1.57619576 0 0 Z " fill="#C7C7C7" transform="translate(488,306)"/>
</svg>
