<?xml version="1.0" encoding="UTF-8"?>
<svg version="1.1" xmlns="http://www.w3.org/2000/svg" width="400" height="139">
<path d="M0 0 C0.66 0 1.32 0 2 0 C2.08058655 0.55392426 2.1611731 1.10784851 2.24420166 1.67855835 C5.48426076 23.74169967 9.37056399 45.68996678 13.22808838 67.65161133 C14.10845121 72.66713649 14.98571816 77.68320311 15.86328125 82.69921875 C17.57256945 92.4666644 19.28516881 102.23352609 21 112 C21.60544214 109.75033683 22.20935498 107.50027923 22.8125 105.25 C23.14894531 103.99703125 23.48539062 102.7440625 23.83203125 101.453125 C25.26736588 95.9806117 26.62782724 90.48869103 28 85 C39.22 85 50.44 85 62 85 C62 86.65 62 88.3 62 90 C47.15 90.495 47.15 90.495 32 91 C27.05 112.78 27.05 112.78 22 135 C21.34 135 20.68 135 20 135 C17.15113533 121.08213605 14.55088736 107.13528257 12.109375 93.140625 C11.79595108 91.35396611 11.48231132 89.56734506 11.16845703 87.78076172 C10.02637717 81.2709624 8.88842009 74.76044033 7.75 68.25 C5.1925 53.6475 2.635 39.045 0 24 C-6.6 56.67 -13.2 89.34 -20 123 C-22.73015657 120.26984343 -23.38596473 119.58895534 -24.42626953 116.20288086 C-24.66306427 115.44877426 -24.89985901 114.69466766 -25.14382935 113.91770935 C-25.38769379 113.1082637 -25.63155823 112.29881805 -25.8828125 111.46484375 C-26.14254852 110.63038223 -26.40228455 109.79592072 -26.66989136 108.93617249 C-27.49710908 106.27259121 -28.31142762 103.60527735 -29.125 100.9375 C-29.94834499 98.26702975 -30.77428968 95.59738118 -31.60153198 92.92811584 C-32.11522876 91.26740504 -32.62615485 89.60583422 -33.13406372 87.94334412 C-34.34652869 83.88697969 -34.34652869 83.88697969 -36 80 C-37.65 83.3 -39.3 86.6 -41 90 C-80.27 90 -119.54 90 -160 90 C-161.1395838 87.72083241 -161.18150505 86.28189693 -161.28125 83.74609375 C-161.33732422 82.4631543 -161.33732422 82.4631543 -161.39453125 81.15429688 C-161.42933594 80.25775391 -161.46414062 79.36121094 -161.5 78.4375 C-161.7611875 71.9126494 -162.21007403 65.48397566 -163 59 C-164.03385465 60.64251229 -165.06716386 62.28536974 -166.09814453 63.9296875 C-166.99810166 65.36279459 -167.90147917 66.79375894 -168.80810547 68.22265625 C-171.122382 71.89318769 -173.34421152 75.57296547 -175.38671875 79.40234375 C-175.76449463 80.09126709 -176.14227051 80.78019043 -176.53149414 81.48999023 C-177.24720887 82.80556946 -177.93900539 84.13451501 -178.60327148 85.47680664 C-179.6015625 87.28125 -179.6015625 87.28125 -182 90 C-184.87126097 90.5570492 -187.0434127 90.3223114 -190 90 C-193.79934165 78.70608855 -197.58923673 67.41864226 -201 56 C-202.15828796 58.31657592 -202.07681233 59.51023783 -201.9921875 62.078125 C-201.66511731 76.3216839 -203.58041318 88.39644908 -208 102 C-208.66 102 -209.32 102 -210 102 C-212.4021604 106.8043208 -212.61122229 111.73103895 -213 117 C-213.94875 116.979375 -214.8975 116.95875 -215.875 116.9375 C-219.83269866 117.49047187 -221.72519495 119.33305944 -224.5625 122.0625 C-238.70737737 135.50120346 -254.80212603 139.62762376 -273.87890625 139.47314453 C-281.92077162 139.24827375 -288.60536207 138.33647737 -296 135 C-296.98355469 134.59910156 -297.96710938 134.19820312 -298.98046875 133.78515625 C-315.87985944 126.24273738 -328.17407833 112.0748719 -335 95 C-337.67489931 87.18124777 -338.51753463 79.92598529 -338.4375 71.6875 C-338.42992676 70.59099121 -338.42235352 69.49448242 -338.41455078 68.36474609 C-338.03716895 49.75734285 -330.65289611 34.79260622 -317.6171875 21.5859375 C-302.08142136 7.02420058 -284.19653738 2.20794615 -263.29980469 2.86376953 C-258.28049952 3.16109143 -253.72371105 4.3406794 -249 6 C-248.00742188 6.3403125 -247.01484375 6.680625 -245.9921875 7.03125 C-231.04403981 12.6893724 -219.19982339 23.39794002 -211 37 C-210.47986328 36.26330078 -210.47986328 36.26330078 -209.94921875 35.51171875 C-206.99754166 33.22254233 -204.47990301 33.7115623 -200.8125 33.8125 C-198.90404297 33.85310547 -198.90404297 33.85310547 -196.95703125 33.89453125 C-195.49330078 33.94673828 -195.49330078 33.94673828 -194 34 C-191.18552473 40.10378533 -189.27796238 46.37387518 -187.375 52.8125 C-186.75937249 54.88197512 -186.1422603 56.95100935 -185.5234375 59.01953125 C-185.25450684 59.92807861 -184.98557617 60.83662598 -184.70849609 61.77270508 C-184.06123946 64.00672421 -184.06123946 64.00672421 -183 66 C-182.46427368 65.07888428 -182.46427368 65.07888428 -181.91772461 64.13916016 C-180.26212387 61.29847257 -178.59985235 58.46174146 -176.9375 55.625 C-176.37611328 54.65949219 -175.81472656 53.69398437 -175.23632812 52.69921875 C-174.09166992 50.75002934 -172.92647954 48.81276086 -171.74169922 46.88769531 C-169.96903528 44.02748965 -169.96903528 44.02748965 -168.49658203 41.04199219 C-166.85978986 38.12814239 -165.60357774 36.10880451 -163 34 C-158.22170231 33.16844953 -153.79668332 33.40124619 -149 34 C-148.94465088 34.89195068 -148.88930176 35.78390137 -148.83227539 36.70288086 C-148.62339656 40.05211495 -148.41255599 43.40121413 -148.20043945 46.75024414 C-148.10949906 48.19225301 -148.01931228 49.63430963 -147.92993164 51.07641602 C-147.80038507 53.16435941 -147.66801452 55.25210877 -147.53515625 57.33984375 C-147.456604 58.59144287 -147.37805176 59.84304199 -147.29711914 61.13256836 C-146.96690459 65.43078427 -146.47605725 69.71548472 -146 74 C-144.02 60.8 -142.04 47.6 -140 34 C-105.15782231 33.38513804 -105.15782231 33.38513804 -95 42 C-89.67059826 47.32940174 -87.8386045 53.46240766 -87.5625 60.8125 C-87.81323538 69.82757658 -90.59864975 77.59864975 -97 84 C-97.99 84.495 -97.99 84.495 -99 85 C-80.85 85 -62.7 85 -44 85 C-41.36 79.06 -38.72 73.12 -36 67 C-35.34 67 -34.68 67 -34 67 C-30.04 79.54 -26.08 92.08 -22 105 C-20.59727444 98.11928697 -19.19468569 91.23854863 -17.79351521 84.35751915 C-17.6584365 83.69416368 -17.52335779 83.03080822 -17.38418579 82.34735107 C-17.24888584 81.68290733 -17.11358589 81.01846359 -16.97418594 80.33388519 C-16.564424 78.3219469 -16.15447216 76.31004738 -15.74447632 74.29815674 C-12.87933937 60.23694238 -10.02349636 46.1741955 -7.234375 32.09765625 C-7.02517929 31.04340958 -6.81598358 29.9891629 -6.60044861 28.90296936 C-5.62189938 23.96924678 -4.64761641 19.03474184 -3.67993164 14.09887695 C-3.33493686 12.35495303 -2.98981169 10.61105489 -2.64453125 8.8671875 C-2.41410126 7.67930382 -2.41410126 7.67930382 -2.17901611 6.46742249 C-1.1134692 1.1134692 -1.1134692 1.1134692 0 0 Z M-284 6 C-285.0409066 7.64142963 -286.04504326 9.30712215 -287 11 C-288.32 11 -289.64 11 -291 11 C-291.495 10.01 -291.495 10.01 -292 9 C-293.46067199 9.45082469 -294.91848032 9.91093537 -296.375 10.375 C-297.18710937 10.63023438 -297.99921875 10.88546875 -298.8359375 11.1484375 C-301.16459185 11.89854283 -301.16459185 11.89854283 -303 14 C-302.34 14 -301.68 14 -301 14 C-300.87625 14.804375 -300.7525 15.60875 -300.625 16.4375 C-300.41875 17.283125 -300.2125 18.12875 -300 19 C-299.34 19.33 -298.68 19.66 -298 20 C-297.60828247 21.65391846 -297.27942455 23.32345271 -297 25 C-296.67 25.99 -296.34 26.98 -296 28 C-296.928125 28.103125 -297.85625 28.20625 -298.8125 28.3125 C-302.19105883 29.04120877 -302.78151133 29.57983054 -305 32 C-305.60199219 32.09152344 -306.20398438 32.18304688 -306.82421875 32.27734375 C-311.70598208 33.89875527 -314.53347359 39.74425421 -317 44 C-317.84654241 46.87555675 -318 48.97647601 -318 52 C-313.18790099 54.29045014 -313.18790099 54.29045014 -308 55 C-308 55.99 -308 56.98 -308 58 C-308.53625 57.79375 -309.0725 57.5875 -309.625 57.375 C-312.83267308 56.8685253 -315.01317066 57.84599775 -318 59 C-318.34179688 56.02148438 -318.34179688 56.02148438 -318.68359375 53.04296875 C-318.97170735 50.80603607 -318.97170735 50.80603607 -320 48 C-321.98 48.66 -323.96 49.32 -326 50 C-326 51.98 -326 53.96 -326 56 C-324.68 55.34 -323.36 54.68 -322 54 C-322 55.32 -322 56.64 -322 58 C-321.34 58 -320.68 58 -320 58 C-320 59.65 -320 61.3 -320 63 C-319.41992188 62.90460937 -318.83984375 62.80921875 -318.2421875 62.7109375 C-310.95132347 61.67626043 -306.1731623 62.82894439 -300 67 C-298.46668523 68.41536748 -297.10318509 69.88084199 -295.73828125 71.45703125 C-293.58224127 73.37081955 -291.50386094 74.17387056 -288.8125 75.1875 C-287.46091797 75.70376953 -287.46091797 75.70376953 -286.08203125 76.23046875 C-285.39496094 76.48441406 -284.70789063 76.73835938 -284 77 C-283.75 82.625 -283.75 82.625 -286 86 C-282.93927981 86.41501291 -280.94815701 86.67906987 -278 86 C-275.62472254 83.75078476 -274.43785696 80.90593914 -273 78 C-272.06220703 76.37384766 -272.06220703 76.37384766 -271.10546875 74.71484375 C-267.34981092 69.07173124 -267.34981092 69.07173124 -266.265625 62.71875 C-266.50796875 62.1515625 -266.7503125 61.584375 -267 61 C-268.42632234 57.00629744 -268.25035761 53.01470244 -267 49 C-265.60876207 47.0595892 -264.08465573 45.3981121 -262.43359375 43.67578125 C-260.44830334 41.35510118 -259.71570853 38.93440496 -259 36 C-259.66 36 -260.32 36 -261 36 C-261 33.36 -261 30.72 -261 28 C-258.69 28 -256.38 28 -254 28 C-254.495 26.515 -254.495 26.515 -255 25 C-255.66 25 -256.32 25 -257 25 C-257 23.35 -257 21.7 -257 20 C-257.9590625 19.8453125 -257.9590625 19.8453125 -258.9375 19.6875 C-259.618125 19.460625 -260.29875 19.23375 -261 19 C-261.495 17.515 -261.495 17.515 -262 16 C-261.360625 15.896875 -260.72125 15.79375 -260.0625 15.6875 C-259.381875 15.460625 -258.70125 15.23375 -258 15 C-257.67 14.01 -257.34 13.02 -257 12 C-256.01 12.33 -255.02 12.66 -254 13 C-253.33333333 14.66666667 -252.66666667 16.33333333 -252 18 C-251.01 18.33 -250.02 18.66 -249 19 C-248.34 18.34 -247.68 17.68 -247 17 C-247 16.01 -247 15.02 -247 14 C-247.99 13.505 -247.99 13.505 -249 13 C-249.625 10.4375 -249.625 10.4375 -250 8 C-261.0093782 4.8809856 -272.70460248 3.26322968 -284 6 Z M-290 8 C-290 8.66 -290 9.32 -290 10 C-289.01 10 -288.02 10 -287 10 C-286.67 9.01 -286.34 8.02 -286 7 C-288.0745356 6.8509288 -288.0745356 6.8509288 -290 8 Z M-248 9 C-248 9.99 -248 10.98 -248 12 C-247.21625 12.268125 -246.4325 12.53625 -245.625 12.8125 C-243 14 -243 14 -241 17 C-240.67 15.68 -240.34 14.36 -240 13 C-242.62198774 10.84622436 -244.64404172 9.59927826 -248 9 Z M-239 14 C-239 15.32 -239 16.64 -239 18 C-239.99 18.495 -239.99 18.495 -241 19 C-240.01 19 -239.02 19 -238 19 C-237.34 17.35 -236.68 15.7 -236 14 C-236.99 14 -237.98 14 -239 14 Z M-308 16 C-310.39731331 19.19641774 -312.38479725 22.00118212 -313 26 C-313.66 26 -314.32 26 -315 26 C-315.66 25.34 -316.32 24.68 -317 24 C-323.34048707 30.37342466 -328.93406431 37.45695208 -332 46 C-331.70431763 50.39365518 -330.81948929 53.99712356 -329 58 C-328.01 57.505 -328.01 57.505 -327 57 C-327.20625 56.2575 -327.4125 55.515 -327.625 54.75 C-328 52 -328 52 -327.5 49.8125 C-326 48 -326 48 -322.75 47.375 C-317.76390852 45.54676646 -316.79766068 43.00585508 -314.34375 38.4765625 C-312.15613575 34.44473856 -309.31166951 31.14608603 -306 28 C-306.66 28 -307.32 28 -308 28 C-305.45543849 25.03134491 -302.51005335 23.6380249 -299 22 C-299.474375 21.38125 -299.94875 20.7625 -300.4375 20.125 C-302 18 -302 18 -303 16 C-303.99 16.66 -304.98 17.32 -306 18 C-306 17.34 -306 16.68 -306 16 C-306.66 16 -307.32 16 -308 16 Z M-254 18 C-254.33 18.66 -254.66 19.32 -255 20 C-254.01 19.67 -253.02 19.34 -252 19 C-252.66 18.67 -253.32 18.34 -254 18 Z M-236 18 C-236.33 18.66 -236.66 19.32 -237 20 C-240.34252724 20.07427838 -242.8035914 20.06546953 -246 19 C-249.16266898 20.58133449 -251.63055987 22.38114512 -254 25 C-253.34 25 -252.68 25 -252 25 C-252.33 26.32 -252.66 27.64 -253 29 C-254.98 29 -256.96 29 -259 29 C-259 30.98 -259 32.96 -259 35 C-256.12635209 35.41746608 -256.12635209 35.41746608 -253 35 C-251.11948415 32.64410004 -251.11948415 32.64410004 -250 30 C-249 29 -249 29 -246.1875 28.75 C-242.72285889 29.02173656 -241.50584896 29.68690865 -239 32 C-239 31.34 -239 30.68 -239 30 C-235.83884224 31.36983503 -235.0072908 31.9890638 -233 35 C-232.3503125 34.1028125 -232.3503125 34.1028125 -231.6875 33.1875 C-231.130625 32.465625 -230.57375 31.74375 -230 31 C-229.3503125 30.1028125 -229.3503125 30.1028125 -228.6875 29.1875 C-227 28 -227 28 -223.8125 28.3125 C-222.884375 28.539375 -221.95625 28.76625 -221 29 C-222.3881735 25.87142986 -224.01101878 23.71810826 -226.4375 21.3125 C-227.03433594 20.71050781 -227.63117188 20.10851562 -228.24609375 19.48828125 C-231.09914532 17.06731767 -232.44491262 16.81497087 -236 18 Z M-304 26 C-304 26.99 -304 27.98 -304 29 C-303.34 29 -302.68 29 -302 29 C-302 28.01 -302 27.02 -302 26 C-302.66 26 -303.32 26 -304 26 Z M-249.75 31.5 C-250.1625 31.995 -250.575 32.49 -251 33 C-250.67 33.66 -250.34 34.32 -250 35 C-248.68 34.67 -247.36 34.34 -246 34 C-246 33.01 -246 32.02 -246 31 C-245.34 30.67 -244.68 30.34 -244 30 C-247.87797662 29.56613908 -247.87797662 29.56613908 -249.75 31.5 Z M-228 30 C-227.67 30.66 -227.34 31.32 -227 32 C-226.67 31.34 -226.34 30.68 -226 30 C-226.66 30 -227.32 30 -228 30 Z M-225 30 C-225.33 30.66 -225.66 31.32 -226 32 C-225.01 32 -224.02 32 -223 32 C-223 31.34 -223 30.68 -223 30 C-223.66 30 -224.32 30 -225 30 Z M-243 32 C-243 32.66 -243 33.32 -243 34 C-242.01 33.67 -241.02 33.34 -240 33 C-240.99 32.67 -241.98 32.34 -243 32 Z M-229 34 C-228.67 34.99 -228.34 35.98 -228 37 C-225.03 37.495 -225.03 37.495 -222 38 C-222.1546875 39.918125 -222.1546875 39.918125 -222.3125 41.875 C-222.35907073 47.73359812 -219.89818838 52.04202774 -217 57 C-214.80601826 54.80601826 -214.3453065 54.02143183 -214 51 C-214.86454438 48.29534258 -214.86454438 48.29534258 -216 46 C-214.68 46.33 -213.36 46.66 -212 47 C-211.32198966 44.09926819 -211.32198966 44.09926819 -211 41 C-212.77647928 38.84706477 -212.77647928 38.84706477 -215 38.625 C-215.66 38.41875 -216.32 38.2125 -217 38 C-217.66 36.68 -218.32 35.36 -219 34 C-222.3 34 -225.6 34 -229 34 Z M-216 34 C-215 37 -215 37 -215 37 Z M-236 35 C-235.67 36.98 -235.34 38.96 -235 41 C-234.01 40.34 -233.02 39.68 -232 39 C-233.32 37.68 -234.64 36.36 -236 35 Z M-258.94921875 39.86328125 C-259.52285156 40.67152344 -260.09648437 41.47976562 -260.6875 42.3125 C-261.26886719 43.11300781 -261.85023438 43.91351563 -262.44921875 44.73828125 C-265.10742745 48.61511459 -266.24737518 50.47605572 -266.125 55.1875 C-266.10695313 56.08855469 -266.08890625 56.98960938 -266.0703125 57.91796875 C-266.04710937 58.60503906 -266.02390625 59.29210937 -266 60 C-265.34 60.33 -264.68 60.66 -264 61 C-259.59227428 53.47905053 -255.33994291 46.0715287 -252 38 C-255.27527615 37.61102572 -256.50725597 37.52898016 -258.94921875 39.86328125 Z M-229 39 C-229.66 39.66 -230.32 40.32 -231 41 C-228.69 41.66 -226.38 42.32 -224 43 C-224 42.34 -224 41.68 -224 41 C-224.66 40.34 -225.32 39.68 -226 39 C-226.99 39 -227.98 39 -229 39 Z M-233 42 C-234.1834096 47.02936735 -233.67131839 51.22829252 -232.63671875 56.20703125 C-232.48467484 56.97303146 -232.33263092 57.73903168 -232.17597961 58.52824402 C-231.85397959 60.13697143 -231.52675282 61.74466059 -231.19458008 63.35131836 C-230.68607817 65.81940105 -230.19841033 68.29097712 -229.71289062 70.76367188 C-229.39706124 72.32837335 -229.08004588 73.89283601 -228.76171875 75.45703125 C-228.61578781 76.19862991 -228.46985687 76.94022858 -228.31950378 77.70429993 C-227.94524529 79.48459031 -227.48081757 81.24548647 -227 83 C-226.34 83.33 -225.68 83.66 -225 84 C-223.79530432 80.58915232 -222.61429908 77.17056267 -221.4375 73.75 C-221.09525391 72.78191406 -220.75300781 71.81382813 -220.40039062 70.81640625 C-220.08134766 69.88183594 -219.76230469 68.94726562 -219.43359375 67.984375 C-219.13509521 67.12553711 -218.83659668 66.26669922 -218.52905273 65.38183594 C-217.62932744 61.33120374 -219.07876346 58.64255808 -221 55.125 C-222.7379914 51.76236447 -223.61984455 48.80155446 -224 45 C-226.97 44.01 -229.94 43.02 -233 42 Z M-128 45 C-128.53621058 47.33509213 -128.94568479 49.59177504 -129.2890625 51.95703125 C-129.39721283 52.65640305 -129.50536316 53.35577484 -129.61679077 54.07633972 C-129.84443407 55.55944997 -130.06775083 57.04322968 -130.28710938 58.52758789 C-130.62226258 60.79398882 -130.97005249 63.05815532 -131.3203125 65.32226562 C-131.53981038 66.76290708 -131.75858385 68.20365914 -131.9765625 69.64453125 C-132.07965729 70.32070999 -132.18275208 70.99688873 -132.28897095 71.69355774 C-132.75384404 74.85630948 -133 77.79035574 -133 81 C-119.65304937 82.50316209 -119.65304937 82.50316209 -107.1875 78.4375 C-101.96743257 72.62085343 -100.28546804 66.32307575 -100.62109375 58.58203125 C-101.30069956 53.95090297 -102.82721304 50.68365246 -106.6484375 47.72265625 C-112.37269302 44.21061302 -121.62281682 41.81140841 -128 45 Z M-246 48 C-249.96 56.91 -249.96 56.91 -254 66 C-251.56612247 67.21693876 -249.58161154 67.31959896 -246.875 67.5625 C-245.96492188 67.64628906 -245.05484375 67.73007813 -244.1171875 67.81640625 C-243.41851562 67.87699219 -242.71984375 67.93757813 -242 68 C-242.28250662 65.41536498 -242.5756226 62.83268865 -242.875 60.25 C-242.95363281 59.52039062 -243.03226563 58.79078125 -243.11328125 58.0390625 C-243.57567116 54.12653252 -244.20960458 51.58079084 -246 48 Z M-334 52 C-335.95773102 58.53092877 -336.27379767 64.45519436 -336.1875 71.25 C-336.18685547 72.2296875 -336.18621094 73.209375 -336.18554688 74.21875 C-336.15970541 78.42229457 -336.02756243 81.88975028 -335 86 C-328.4 86 -321.8 86 -315 86 C-316.32 83.36 -317.64 80.72 -319 78 C-319.171875 74.59375 -319.171875 74.59375 -318.75 71.5 C-318.62109375 70.4584375 -318.4921875 69.416875 -318.359375 68.34375 C-318.24078125 67.5703125 -318.1221875 66.796875 -318 66 C-318.62003906 65.71253906 -319.24007813 65.42507812 -319.87890625 65.12890625 C-322 64 -322 64 -323.9375 61.9375 C-326.30839468 59.71029591 -327.81664932 59.35370563 -331 59 C-331.66 56.69 -332.32 54.38 -333 52 C-333.33 52 -333.66 52 -334 52 Z M-326 58 C-325.34 58.66 -324.68 59.32 -324 60 C-324 59.34 -324 58.68 -324 58 C-324.66 58 -325.32 58 -326 58 Z M-315 63 C-315.71258948 65.32779229 -316.37307908 67.64904655 -317 70 C-317.309375 71.134375 -317.61875 72.26875 -317.9375 73.4375 C-318.0241632 78.37730263 -315.93678692 81.16534192 -313 85 C-310.45166146 87.54833854 -303.54813119 86.28302413 -300.125 86.3125 C-299.00996094 86.34150391 -297.89492188 86.37050781 -296.74609375 86.40039062 C-295.67746094 86.40876953 -294.60882813 86.41714844 -293.5078125 86.42578125 C-292.52441895 86.44036377 -291.54102539 86.45494629 -290.52783203 86.4699707 C-287.87202519 86.22484574 -287.87202519 86.22484574 -286.1574707 84.13720703 C-284.79617603 82.02091096 -284.79617603 82.02091096 -284.97265625 79.37890625 C-285.79404987 76.77717118 -285.79404987 76.77717118 -288.43359375 75.77734375 C-289.42488281 75.50019531 -290.41617188 75.22304687 -291.4375 74.9375 C-296.75072302 73.43428045 -296.75072302 73.43428045 -298.12109375 71.046875 C-298.55615234 70.03367187 -298.55615234 70.03367187 -299 69 C-303.88682789 64.74410059 -308.63575879 63.34094149 -315 63 Z M-206 66 C-206.21615967 66.61407715 -206.43231934 67.2281543 -206.6550293 67.86083984 C-207.65919119 70.70129778 -208.67328674 73.53811623 -209.6875 76.375 C-210.02716797 77.34050781 -210.36683594 78.30601563 -210.71679688 79.30078125 C-213.04646242 85.78900865 -215.77346869 91.90813497 -219 98 C-216.03 98 -213.06 98 -210 98 C-205.23207734 87.95495907 -202.79419113 77.02904436 -205 66 C-205.33 66 -205.66 66 -206 66 Z M-255 70 C-251.37 70 -247.74 70 -244 70 C-248.45872516 67.02751656 -250.27793327 67.63896664 -255 70 Z M-260 79 C-261.65 82.3 -263.3 85.6 -265 89 C-267.22169922 89.03867188 -267.22169922 89.03867188 -269.48828125 89.078125 C-271.42971728 89.13439851 -273.37112239 89.19174601 -275.3125 89.25 C-276.28896484 89.26417969 -277.26542969 89.27835938 -278.27148438 89.29296875 C-279.20927734 89.32519531 -280.14707031 89.35742188 -281.11328125 89.390625 C-282.40939331 89.4220459 -282.40939331 89.4220459 -283.73168945 89.45410156 C-286.72026582 90.17334134 -287.357662 91.48333461 -289 94 C-291.1875 95.25 -291.1875 95.25 -293 96 C-293 96.33 -293 96.66 -293 97 C-291.35 97 -289.7 97 -288 97 C-288 103.6 -288 110.2 -288 117 C-289.98 117 -291.96 117 -294 117 C-294 111.72 -294 106.44 -294 101 C-294.99 101.495 -294.99 101.495 -296 102 C-296 102.66 -296 103.32 -296 104 C-296.66 104 -297.32 104 -298 104 C-298 104.66 -298 105.32 -298 106 C-297.34 106 -296.68 106 -296 106 C-296 109.3 -296 112.6 -296 116 C-296.99 116.495 -296.99 116.495 -298 117 C-297.34 117 -296.68 117 -296 117 C-296 117.99 -296 118.98 -296 120 C-297.65 119.67 -299.3 119.34 -301 119 C-300.67 119.99 -300.34 120.98 -300 122 C-310.57810692 115.42258736 -310.57810692 115.42258736 -313 111 C-313.65194857 106.69883278 -313.47278532 103.70917798 -311 100 C-311.495 95.05 -311.495 95.05 -312 90 C-319.26 90 -326.52 90 -334 90 C-330.94642907 98.69805052 -327.75320456 105.8024763 -322 113 C-321.10667969 114.15628906 -321.10667969 114.15628906 -320.1953125 115.3359375 C-315.03027874 121.61541838 -308.90136196 125.77866693 -302 130 C-301.34 129.67 -300.68 129.34 -300 129 C-300.33 128.34 -300.66 127.68 -301 127 C-300.34 127 -299.68 127 -299 127 C-299 126.34 -299 125.68 -299 125 C-296.36 125 -293.72 125 -291 125 C-291.495 125.99 -291.495 125.99 -292 127 C-292.99 127.33 -293.98 127.66 -295 128 C-294.071875 128.763125 -293.14375 129.52625 -292.1875 130.3125 C-290.46243927 131.73527205 -288.92926323 133.07922518 -287.4375 134.75 C-284.10499686 137.64782882 -278.91718792 137.32543213 -274.68359375 137.296875 C-268.69447198 136.63432296 -262.39581572 134.69790786 -257 132 C-255.45832306 131.97994101 -253.91583114 132.00764069 -252.375 132.0625 C-240.22201311 132.09727249 -231.84507333 126.62368763 -222.8125 118.8125 C-219.19631303 115.09336108 -218.44966408 112.60723383 -218.4375 107.4375 C-218.5803757 105.62093758 -218.75257368 103.80529574 -219 102 C-220.65 102 -222.3 102 -224 102 C-224 100.68 -224 99.36 -224 98 C-223.34 98 -222.68 98 -222 98 C-222.495 96.515 -222.495 96.515 -223 95 C-223.53625 95.7425 -224.0725 96.485 -224.625 97.25 C-227 100 -227 100 -230.25 101.5 C-233.3152323 103.73983944 -233.3152323 103.73983944 -233.3828125 107.140625 C-233.37565673 110.44658957 -233.25715432 113.70461501 -233 117 C-234.65 117 -236.3 117 -238 117 C-237.96519531 115.80503906 -237.93039063 114.61007813 -237.89453125 113.37890625 C-237.56667301 102.42540524 -237.56667301 102.42540524 -240.40234375 91.9609375 C-241.35454025 88.83673722 -240.79632428 86.01486145 -240.2265625 82.84765625 C-239.81589372 80.90758791 -239.81589372 80.90758791 -241 79 C-247.27 79 -253.54 79 -260 79 Z M-240 86 C-239 90 -239 90 -239 90 Z M-310 90 C-309.67 92.64 -309.34 95.28 -309 98 C-307.783125 97.95875 -306.56625 97.9175 -305.3125 97.875 C-301.78105873 97.86245492 -299.19996434 98.40001783 -296 100 C-295.608125 99.071875 -295.21625 98.14375 -294.8125 97.1875 C-292.86227892 93.75780085 -291.4359646 92.76441425 -288 91 C-288 90.67 -288 90.34 -288 90 C-295.26 90 -302.52 90 -310 90 Z M-239 90 C-238.34 92.31 -237.68 94.62 -237 97 C-235.68 97 -234.36 97 -233 97 C-233 98.65 -233 100.3 -233 102 C-228.27458776 99.70479977 -225.55008287 96.50333783 -223 92 C-223 91.34 -223 90.68 -223 90 C-228.28 90 -233.56 90 -239 90 Z M-219 90 C-218.67 90.99 -218.34 91.98 -218 93 C-217.67 92.01 -217.34 91.02 -217 90 C-217.66 90 -218.32 90 -219 90 Z M-223 93 C-222 95 -222 95 -222 95 Z M-220 93 C-220.33 93.99 -220.66 94.98 -221 96 C-220.34 96 -219.68 96 -219 96 C-219.33 95.01 -219.66 94.02 -220 93 Z M-308 104 C-308.16677282 107.58343976 -308.16677282 107.58343976 -308 111 C-307.01 111.33 -306.02 111.66 -305 112 C-305.33 110.02 -305.66 108.04 -306 106 C-304.02 106 -302.04 106 -300 106 C-300 104.68 -300 103.36 -300 102 C-304.49304582 101.57496554 -304.49304582 101.57496554 -308 104 Z M-213 102 C-212 104 -212 104 -212 104 Z M-303 110 C-302 113 -302 113 -302 113 Z M-303 117 C-302.34 117.66 -301.68 118.32 -301 119 C-301 118.34 -301 117.68 -301 117 C-301.66 117 -302.32 117 -303 117 Z M-295 131 C-295.33 131.66 -295.66 132.32 -296 133 C-293.525 133.495 -293.525 133.495 -291 134 C-291.97850195 132.97895449 -292.97980427 131.9793879 -294 131 C-294.33 131 -294.66 131 -295 131 Z M-265 136 C-265 136.33 -265 136.66 -265 137 C-256.31963046 136.42697721 -256.31963046 136.42697721 -248 134 C-248 133.67 -248 133.34 -248 133 C-254.33393082 132.65451286 -259.10261508 133.70657253 -265 136 Z " fill="#7892B0" transform="translate(338,0)"/>
<path d="M0 0 C1.65 0 3.3 0 5 0 C5.33 1.65 5.66 3.3 6 5 C6.928125 4.9175 7.85625 4.835 8.8125 4.75 C12 5 12 5 13.8125 6.8125 C15 9 15 9 16 12 C17.32 11.34 18.64 10.68 20 10 C18.68 10 17.36 10 16 10 C16 8.35 16 6.7 16 5 C17.76949095 4.89184775 19.54087487 4.81433917 21.3125 4.75 C22.29863281 4.70359375 23.28476563 4.6571875 24.30078125 4.609375 C27 5 27 5 28.84375 6.65625 C30.26976513 9.54682122 30.30206939 11.54205698 30.1875 14.75 C30.16042969 15.73484375 30.13335937 16.7196875 30.10546875 17.734375 C30.07066406 18.48203125 30.03585938 19.2296875 30 20 C27.89646505 20.0810206 25.79204048 20.13919907 23.6875 20.1875 C22.51574219 20.22230469 21.34398437 20.25710937 20.13671875 20.29296875 C17 20 17 20 15.08203125 18.48828125 C14.72496094 17.99714844 14.36789063 17.50601563 14 17 C13.62230469 17.49113281 13.24460937 17.98226562 12.85546875 18.48828125 C9.29327105 21.39053496 4.37517698 20.15441801 0 20 C0 13.4 0 6.8 0 0 Z M6 9 C4.64381501 10.12534105 4.64381501 10.12534105 4.9375 13.0625 C4.958125 14.031875 4.97875 15.00125 5 16 C6.32 15.67 7.64 15.34 9 15 C9 13.35 9 11.7 9 10 C8.01 9.67 7.02 9.34 6 9 Z M21 14 C21 14.66 21 15.32 21 16 C21.99 16 22.98 16 24 16 C24 15.34 24 14.68 24 14 C23.01 14 22.02 14 21 14 Z " fill="#7892B0" transform="translate(68,97)"/>
<path d="M0 0 C10.75 -0.125 10.75 -0.125 13 1 C14.7325 0.7215625 14.7325 0.7215625 16.5 0.4375 C17.655 0.293125 18.81 0.14875 20 0 C22 2 22 2 22.1953125 5.0390625 C22.17210937 6.22242187 22.14890625 7.40578125 22.125 8.625 C22.10695312 9.81351563 22.08890625 11.00203125 22.0703125 12.2265625 C22.04710937 13.14179687 22.02390625 14.05703125 22 15 C20.35 15 18.7 15 17 15 C16.505 10.05 16.505 10.05 16 5 C15.67 5 15.34 5 15 5 C14.67 8.3 14.34 11.6 14 15 C12.02 15 10.04 15 8 15 C7.67 11.7 7.34 8.4 7 5 C6.67 5 6.34 5 6 5 C5.67 8.3 5.34 11.6 5 15 C3.35 15 1.7 15 0 15 C0 10.05 0 5.1 0 0 Z " fill="#7892B0" transform="translate(170,102)"/>
<path d="M0 0 C0.66 1.32 1.32 2.64 2 4 C2 2.68 2 1.36 2 0 C3.98 0 5.96 0 8 0 C8 4.95 8 9.9 8 15 C6.02 15 4.04 15 2 15 C2 13.68 2 12.36 2 11 C1.67 12.32 1.34 13.64 1 15 C-6.99180328 15.6147541 -6.99180328 15.6147541 -10.5625 13.4375 C-12.56331202 10.04481874 -12.55326548 7.87285839 -12 4 C-8.92690336 -0.99378204 -5.33129622 -0.35541975 0 0 Z M-5 4 C-6.10636395 6.39068734 -6.10636395 6.39068734 -7 9 C-6.67 9.66 -6.34 10.32 -6 11 C-2.535 10.505 -2.535 10.505 1 10 C1.33 8.68 1.66 7.36 2 6 C-0.95377498 3.63019987 -0.95377498 3.63019987 -5 4 Z " fill="#7892B0" transform="translate(245,102)"/>
<path d="M0 0 C1.98 0 3.96 0 6 0 C6 6.6 6 13.2 6 20 C-5.45594525 20.36954662 -5.45594525 20.36954662 -7.86328125 18.734375 C-9.83109763 15.73193351 -9.4951267 12.41774956 -9 9 C-7.875 6.5 -7.875 6.5 -6 5 C-2.8125 4.75 -2.8125 4.75 0 5 C0 3.35 0 1.7 0 0 Z M-2 9 C-2.66 9.66 -3.32 10.32 -4 11 C-3.67958603 13.60280568 -3.67958603 13.60280568 -3 16 C-2.01 16 -1.02 16 0 16 C0 13.69 0 11.38 0 9 C-0.66 9 -1.32 9 -2 9 Z " fill="#7892B0" transform="translate(218,97)"/>
<path d="M0 0 C11.3877551 -0.36734694 11.3877551 -0.36734694 13.875 1.125 C15.51214756 3.85357926 15.28912073 6.03725752 15.1875 9.1875 C15.16042969 10.27417969 15.13335937 11.36085938 15.10546875 12.48046875 C15.07066406 13.31191406 15.03585937 14.14335938 15 15 C13.02 15 11.04 15 9 15 C8.67 11.7 8.34 8.4 8 5 C7.67 5 7.34 5 7 5 C6.67 8.3 6.34 11.6 6 15 C4.02 15 2.04 15 0 15 C0 10.05 0 5.1 0 0 Z " fill="#7892B0" transform="translate(255,102)"/>
<path d="M0 0 C2 1.125 2 1.125 3 3 C3.1875 6.1875 3.1875 6.1875 3 9 C0.36 9.33 -2.28 9.66 -5 10 C-2.36 10 0.28 10 3 10 C2.67 11.65 2.34 13.3 2 15 C-6.96523405 15.61593211 -6.96523405 15.61593211 -10.625 13.4375 C-12.54211763 10.03897329 -12.54861638 7.84031465 -12 4 C-8.93537785 -0.980011 -5.34000819 -0.59333424 0 0 Z M-6 4 C-2 5 -2 5 -2 5 Z " fill="#7892B0" transform="translate(142,102)"/>
<path d="M0 0 C2 1.125 2 1.125 3 3 C3.1875 6.1875 3.1875 6.1875 3 9 C-1.455 9.495 -1.455 9.495 -6 10 C-3.03 10 -0.06 10 3 10 C2.67 11.65 2.34 13.3 2 15 C-6.96523405 15.61593211 -6.96523405 15.61593211 -10.625 13.4375 C-12.54211763 10.03897329 -12.54861638 7.84031465 -12 4 C-8.93537785 -0.980011 -5.34000819 -0.59333424 0 0 Z M-6 4 C-2 5 -2 5 -2 5 Z " fill="#7892B0" transform="translate(283,102)"/>
<path d="M0 0 C2 1.125 2 1.125 3 3 C3.1875 6.1875 3.1875 6.1875 3 9 C0.36 9.33 -2.28 9.66 -5 10 C-2.36 10 0.28 10 3 10 C2.67 11.65 2.34 13.3 2 15 C-6.99360275 15.77235138 -6.99360275 15.77235138 -10.6875 12.9375 C-12.39534422 9.11518198 -12.1114336 7.00116096 -11 3 C-8.71665251 -1.16375131 -4.21520331 -0.6322805 0 0 Z M-6 4 C-2 5 -2 5 -2 5 Z " fill="#7892B0" transform="translate(165,102)"/>
<path d="M0 0 C1.9375 1.125 1.9375 1.125 3 3 C3.1875 6.1875 3.1875 6.1875 3 9 C0.36 9.33 -2.28 9.66 -5 10 C-2.36 10 0.28 10 3 10 C2.67 11.65 2.34 13.3 2 15 C-6.99360275 15.77235138 -6.99360275 15.77235138 -10.6875 12.9375 C-12.40553017 9.09238485 -12.18896834 7.01276815 -11 3 C-7.91898814 -0.67351414 -4.56936624 -0.49847632 0 0 Z M-6 4 C-2 5 -2 5 -2 5 Z " fill="#7892B0" transform="translate(205,102)"/>
<path d="M0 0 C2.73883355 1.59029045 2.94967699 2.83465297 3.875 5.875 C4.02797399 9.6993498 3.48896378 11.10959044 1 14 C-1.8125 15.5 -1.8125 15.5 -5 16 C-10.54651163 13.90697674 -10.54651163 13.90697674 -12 11 C-12.35173852 7.20122401 -12.52701444 4.85639847 -10.5 1.5625 C-6.75107996 -0.78057502 -4.38964238 -0.48773804 0 0 Z M-6 4 C-7.00217064 7.58327753 -7.00217064 7.58327753 -6 11 C-4.68 10.67 -3.36 10.34 -2 10 C-2 8.35 -2 6.7 -2 5 C-3.32 4.67 -4.64 4.34 -6 4 Z " fill="#7892B0" transform="translate(63,102)"/>
<path d="M0 0 C1.98 0 3.96 0 6 0 C6 6.6 6 13.2 6 20 C4.02 20 2.04 20 0 20 C0 13.4 0 6.8 0 0 Z " fill="#7892B0" transform="translate(146,97)"/>
<path d="M0 0 C1.98 0 3.96 0 6 0 C6 4.95 6 9.9 6 15 C4.02 15 2.04 15 0 15 C0 10.05 0 5.1 0 0 Z " fill="#7892B0" transform="translate(226,102)"/>
<path d="M0 0 C0.99 0 1.98 0 3 0 C3 0.66 3 1.32 3 2 C4.32 2.33 5.64 2.66 7 3 C6.375 4.9375 6.375 4.9375 5 7 C1.875 7.75 1.875 7.75 -1 8 C-1.625 5.125 -1.625 5.125 -2 2 C-1.34 1.34 -0.68 0.68 0 0 Z " fill="#7892B0" transform="translate(18,29)"/>
<path d="M0 0 C1.98 0 3.96 0 6 0 C6 1.32 6 2.64 6 4 C4.02 4 2.04 4 0 4 C0 2.68 0 1.36 0 0 Z " fill="#7892B0" transform="translate(247,97)"/>
<path d="M0 0 C1.98 0 3.96 0 6 0 C6 1.32 6 2.64 6 4 C4.02 4 2.04 4 0 4 C0 2.68 0 1.36 0 0 Z " fill="#7892B0" transform="translate(226,97)"/>
</svg>
