<?xml version="1.0" standalone="no"?>
<!DOCTYPE svg PUBLIC "-//W3C//DTD SVG 20010904//EN"
 "http://www.w3.org/TR/2001/REC-SVG-20010904/DTD/svg10.dtd">
<svg version="1.0" xmlns="http://www.w3.org/2000/svg"
 width="225.000000pt" height="225.000000pt" viewBox="0 0 225.000000 225.000000"
 preserveAspectRatio="xMidYMid meet">

<g transform="translate(0.000000,225.000000) scale(0.100000,-0.100000)"
fill="#000000" stroke="none">
<path d="M740 1787 l-125 -72 -2 -520 -3 -520 257 -148 256 -148 131 76 c72
41 187 108 256 148 l125 72 0 300 0 299 -245 141 -245 142 -1 78 -2 77 -127
74 c-70 41 -133 74 -139 74 -6 0 -67 -33 -136 -73z m268 -47 l74 -42 -103 -59
-102 -59 -98 57 c-55 32 -99 60 -99 63 0 3 44 30 98 61 l97 56 30 -17 c17 -10
63 -36 103 -60z m-203 -167 l50 -29 3 -365 2 -364 120 -68 120 -68 0 -119 0
-118 -222 128 -223 129 -3 481 -2 482 52 -30 c29 -16 76 -43 103 -59z m295
-251 l0 -338 -77 -44 c-43 -24 -88 -50 -100 -58 l-23 -14 0 339 0 339 98 56
c53 31 98 57 100 57 1 1 2 -151 2 -337z m268 58 c111 -63 201 -117 202 -120 0
-3 -45 -31 -100 -62 l-100 -57 -98 56 c-141 81 -132 68 -132 195 0 87 3 109
13 106 8 -2 105 -55 215 -118z m-117 -217 l99 -58 0 -118 0 -118 -22 12 c-13
7 -60 34 -105 61 l-83 49 0 114 c0 63 3 115 6 115 3 0 50 -26 105 -57z m349
-201 l0 -258 -219 -127 c-121 -70 -224 -127 -231 -127 -7 0 -10 35 -8 113 l3
112 105 62 c58 34 113 67 123 73 15 9 17 28 17 153 l0 142 98 57 c53 31 100
57 105 57 4 1 7 -115 7 -257z m-337 -92 c31 -17 57 -35 57 -38 0 -4 -45 -32
-99 -63 l-98 -56 -102 60 -102 60 103 58 103 58 40 -23 c22 -13 66 -38 98 -56z"/>
</g>
</svg>
