<svg width="272" height="64" viewBox="0 0 272 64" fill="none" xmlns="http://www.w3.org/2000/svg">
<path d="M19.7735 36.6361H8.2962V44.619H18.8427V50.5614H8.2962V63.1957H0.970703V30.67H19.7735V36.6361ZM33.0678 63.7637C29.1973 63.7637 26.1542 62.6786 23.9385 60.5085C21.7228 58.3383 20.6149 55.3934 20.6149 51.6737C20.6149 47.8312 21.764 44.8258 24.0621 42.6575C26.3602 40.4891 29.4681 39.404 33.3859 39.4023C37.2424 39.4023 40.2662 40.4873 42.4574 42.6575C44.6485 44.8276 45.745 47.6971 45.7467 51.2661C45.7467 55.1226 44.6161 58.1692 42.3548 60.4059C40.0935 62.6427 36.9978 63.7619 33.0678 63.7637ZM33.2492 44.8924C31.5559 44.8924 30.2412 45.4744 29.3051 46.6384C28.369 47.8023 27.9001 49.4501 27.8984 51.5816C27.8984 56.0446 29.6977 58.2752 33.2965 58.2735C36.7288 58.2735 38.4449 55.9824 38.4449 51.4002C38.4484 47.0617 36.7191 44.8924 33.2571 44.8924H33.2492ZM69.9583 63.1957H62.8221V59.6671H62.709C60.9385 62.4051 58.5721 63.7742 55.6096 63.7742C50.2229 63.7672 47.5295 60.505 47.5295 53.9875V39.9702H54.6736V53.3565C54.6736 56.638 55.9734 58.2787 58.573 58.2787C59.1559 58.3014 59.7365 58.1919 60.2711 57.9583C60.8057 57.7247 61.2805 57.3731 61.6599 56.9299C62.4294 56.0306 62.8151 54.8097 62.8168 53.2671V39.9702H69.9609L69.9583 63.1957ZM94.7058 63.1957H87.5698V50.2906C87.5698 46.6901 86.2848 44.8907 83.7148 44.8924C83.1308 44.8814 82.5518 45.0043 82.0218 45.2518C81.4928 45.4993 81.0268 45.8647 80.6598 46.3202C79.8568 47.2721 79.4568 48.4816 79.4578 49.9488V63.1957H72.2827V39.9702H79.4508V43.6514H79.5398C81.2488 40.8256 83.7368 39.4119 87.0018 39.4101C92.1448 39.4101 94.7158 42.6005 94.7138 48.9812L94.7058 63.1957ZM120.601 63.1957H113.441V59.9984H113.351C111.716 62.5068 109.321 63.7619 106.165 63.7637C103.262 63.7637 100.927 62.7391 99.1578 60.6899C97.3888 58.6407 96.5048 55.779 96.5048 52.1049C96.5048 48.2625 97.4798 45.1852 99.4288 42.8731C101.378 40.5609 103.934 39.404 107.096 39.4023C110.092 39.4023 112.179 40.4759 113.357 42.6233H113.446V28.811H120.614L120.601 63.1957ZM113.57 51.8893V50.1434C113.617 48.7681 113.148 47.4248 112.255 46.3781C111.791 45.8771 111.223 45.4844 110.59 45.228C109.957 44.9715 109.276 44.8576 108.594 44.8942C107.912 44.9308 107.247 45.1172 106.646 45.44C106.044 45.7628 105.521 46.2142 105.114 46.762C104.22 48.0118 103.773 49.7244 103.775 51.8998C103.775 53.9437 104.206 55.5161 105.066 56.617C105.927 57.7178 107.122 58.27 108.65 58.2735C109.338 58.287 110.02 58.1356 110.637 57.8319C111.255 57.5281 111.791 57.0809 112.2 56.5276C113.118 55.3619 113.578 53.8193 113.578 51.8998L113.57 51.8893ZM144.639 53.6194H129.488C129.73 56.9903 131.855 58.6758 135.862 58.6758C138.418 58.6758 140.663 58.071 142.598 56.8615V62.0335C140.451 63.1834 137.661 63.7584 134.229 63.7584C130.479 63.7584 127.569 62.7189 125.497 60.6399C123.425 58.561 122.389 55.6625 122.389 51.9445C122.389 48.088 123.508 45.0344 125.746 42.7837C127.985 40.5329 130.737 39.4058 134.003 39.4023C137.389 39.4023 140.009 40.4084 141.862 42.4208C143.715 44.4332 144.64 47.1625 144.639 50.6088V53.6194ZM137.994 49.2178C137.994 45.8872 136.648 44.222 133.955 44.222C133.384 44.2239 132.819 44.353 132.304 44.6C131.788 44.8469 131.334 45.2055 130.974 45.6497C130.113 46.6528 129.579 47.895 129.443 49.2099L137.994 49.2178ZM161.856 46.428C160.925 45.9455 159.888 45.7058 158.84 45.7312C157.28 45.7312 156.063 46.3018 155.188 47.443C154.313 48.5841 153.875 50.1381 153.873 52.1049V63.1957H146.705V39.9702H153.873V44.2798H153.963C155.097 41.135 157.138 39.5626 160.086 39.5626C160.688 39.5341 161.289 39.6234 161.856 39.8256V46.428ZM163.486 62.5831V56.7747C164.59 57.4472 165.775 57.9773 167.012 58.3524C168.089 58.6866 169.208 58.8637 170.336 58.8782C171.605 58.8782 172.607 58.7029 173.341 58.3524C174.076 58.0018 174.442 57.4759 174.44 56.7747C174.445 56.561 174.403 56.3489 174.317 56.1531C174.231 55.9574 174.104 55.7827 173.943 55.6414C173.562 55.3102 173.128 55.0438 172.66 54.8526C172.103 54.6118 171.532 54.4071 170.949 54.24C170.328 54.0647 169.73 53.8605 169.155 53.6273C168.315 53.3164 167.5 52.9411 166.718 52.5046C166.057 52.1371 165.459 51.6657 164.948 51.1084C164.468 50.5721 164.098 49.9467 163.86 49.2678C163.594 48.4705 163.468 47.6336 163.486 46.7935C163.455 45.6182 163.748 44.457 164.336 43.4384C164.9 42.5025 165.677 41.7133 166.605 41.135C167.603 40.516 168.699 40.0715 169.847 39.8203C171.093 39.5362 172.368 39.3951 173.646 39.3996C174.695 39.4007 175.742 39.4807 176.778 39.6389C177.836 39.7971 178.881 40.0282 179.907 40.3304V45.8522C178.998 45.3267 178.02 44.9319 177.001 44.6795C176.005 44.4196 174.981 44.2862 173.951 44.2824C173.51 44.2814 173.07 44.3228 172.637 44.406C172.256 44.4783 171.886 44.6003 171.537 44.7689C171.242 44.9098 170.985 45.1199 170.788 45.3815C170.611 45.6297 170.519 45.9285 170.525 46.2334C170.518 46.6353 170.665 47.0247 170.935 47.322C171.233 47.6491 171.59 47.9167 171.987 48.1108C172.459 48.345 172.947 48.5428 173.449 48.7024C173.985 48.8777 174.519 49.053 175.05 49.2283C175.935 49.5337 176.799 49.8973 177.635 50.3169C178.361 50.679 179.03 51.1459 179.62 51.7026C180.169 52.2266 180.602 52.8599 180.89 53.5616C181.246 54.5477 181.39 55.5978 181.311 56.6432C181.233 57.6886 180.934 58.7057 180.435 59.6276C179.846 60.5976 179.035 61.414 178.069 62.0099C177.014 62.6481 175.858 63.1008 174.651 63.3482C173.328 63.631 171.978 63.772 170.625 63.7689C168.194 63.7948 165.778 63.3934 163.486 62.5831ZM219.816 63.1957H212.454V49.9383H199.002V63.1852H191.676V30.67H199.002V43.6435H212.475V30.67H219.837L219.816 63.1957ZM244.564 63.1957H237.42V59.6671H237.307C235.536 62.4051 233.17 63.7742 230.207 63.7742C224.822 63.7742 222.131 60.5155 222.132 53.9981V39.9702H229.277V53.3565C229.277 56.638 230.576 58.2787 233.176 58.2787C233.759 58.3014 234.339 58.1919 234.874 57.9583C235.409 57.7247 235.883 57.3731 236.263 56.9299C237.034 56.0306 237.42 54.8097 237.42 53.2671V39.9702H244.564V63.1957ZM254.138 60.498H254.048V63.1957H246.88V28.811H254.048V43.462H254.138C255.908 40.7555 258.426 39.4023 261.692 39.4023C264.684 39.4023 266.99 40.4304 268.61 42.4865C270.229 44.5427 271.038 47.3553 271.037 50.9243C271.037 54.7983 270.092 57.9062 268.202 60.2482C266.313 62.5901 263.787 63.7619 260.624 63.7637C257.774 63.7637 255.614 62.6751 254.145 60.498H254.138ZM253.935 50.6982V53.0936C253.935 54.5906 254.365 55.8299 255.226 56.8115C255.633 57.2889 256.142 57.6692 256.716 57.9244C257.289 58.1796 257.912 58.3034 258.539 58.2866C260.173 58.2866 261.439 57.6556 262.339 56.3934C263.238 55.1313 263.688 53.3433 263.688 51.0295C263.688 49.1012 263.276 47.6007 262.452 46.5279C261.628 45.4551 260.455 44.91 258.934 44.8924C258.256 44.8782 257.584 45.0152 256.966 45.2936C256.349 45.572 255.801 45.9847 255.363 46.5016C254.413 47.5762 253.938 48.975 253.938 50.6982H253.935Z" fill="white"/>
<path d="M15.4824 14.7279H13.2579V5.98252C13.2579 5.26732 13.3026 4.38912 13.3894 3.35312H13.3473C13.2559 3.78572 13.1329 4.21112 12.9792 4.62572L8.94569 14.7279H7.40229L3.35559 4.71252C3.20379 4.27222 3.08429 3.82142 2.99799 3.36362H2.96119C3.01119 3.90532 3.03479 4.78612 3.03479 6.01142V14.7384H0.962891V1.21542H4.11819L7.67049 10.2132C7.87749 10.7172 8.05309 11.2336 8.19629 11.7593H8.24369C8.47509 11.0494 8.66349 10.5235 8.80899 10.1817L12.4271 1.22072H15.4719L15.4824 14.7279ZM18.99 3.05342C18.6505 3.05972 18.3216 2.93442 18.0724 2.70362C17.9478 2.59282 17.8489 2.45602 17.7826 2.30302C17.7163 2.14992 17.6842 1.98432 17.6885 1.81752C17.6848 1.64972 17.7171 1.48312 17.7833 1.32892C17.8496 1.17462 17.9481 1.03642 18.0724 0.923517C18.1943 0.806617 18.3381 0.714817 18.4956 0.653417C18.6531 0.592017 18.8211 0.562317 18.99 0.565917C19.3385 0.557217 19.6765 0.685617 19.9314 0.923517C20.0534 1.03612 20.1508 1.17272 20.2175 1.32472C20.2841 1.47682 20.3185 1.64102 20.3185 1.80702C20.3185 1.97302 20.2841 2.13732 20.2175 2.28932C20.1508 2.44142 20.0534 2.57802 19.9314 2.69052C19.8061 2.81002 19.6584 2.90352 19.4969 2.96582C19.3353 3.02812 19.1631 3.05782 18.99 3.05342ZM20.0733 14.7279H17.8883V5.07802H20.0733V14.7279ZM29.3525 14.2835C28.5156 14.7517 27.5688 14.9878 26.61 14.9672C25.1796 14.9672 24.0245 14.5193 23.1445 13.6235C22.2645 12.7278 21.8263 11.5673 21.8298 10.1422C21.8298 8.55232 22.3022 7.27532 23.247 6.31122C24.1919 5.34712 25.4566 4.86502 27.0413 4.86502C27.8412 4.84962 28.6351 5.00752 29.3683 5.32782V7.34192C28.7552 6.86012 27.9998 6.59472 27.22 6.58732C26.7964 6.57332 26.3747 6.64982 25.9829 6.81162C25.5912 6.97352 25.2384 7.21702 24.9482 7.52602C24.3402 8.19442 24.0216 9.07651 24.0621 9.97921C24.0621 10.9784 24.34 11.7672 24.8957 12.3456C25.1879 12.6376 25.5379 12.8653 25.9232 13.0143C26.3085 13.1632 26.7206 13.2301 27.1333 13.2107C27.9501 13.1999 28.7372 12.9031 29.3577 12.3719L29.3525 14.2835ZM36.6333 7.16052C36.2992 6.93252 35.8983 6.82332 35.4948 6.85022C35.1732 6.85162 34.857 6.93222 34.574 7.08492C34.291 7.23762 34.0501 7.45782 33.8724 7.72582C33.4412 8.30952 33.223 9.10361 33.223 10.1107V14.7279H31.0379V5.07802H33.223V7.07902H33.2624C33.4358 6.47132 33.7766 5.92462 34.2458 5.50132C34.6535 5.13622 35.1815 4.93402 35.7288 4.93342C36.0407 4.91412 36.3522 4.97572 36.6333 5.11222V7.16052ZM41.8053 14.9672C40.3171 14.9672 39.1286 14.5158 38.2399 13.613C37.3511 12.7103 36.9068 11.5156 36.9068 10.0291C36.9068 8.40771 37.3695 7.14212 38.2951 6.23232C39.2206 5.32252 40.4696 4.86682 42.042 4.86502C43.5495 4.86502 44.724 5.30762 45.5654 6.19292C46.4068 7.07812 46.8275 8.30512 46.8275 9.87402C46.8275 11.4131 46.3735 12.6454 45.4654 13.5709C44.5574 14.4965 43.3374 14.9619 41.8053 14.9672ZM41.9079 6.60832C41.5244 6.59152 41.1422 6.66352 40.791 6.81862C40.4399 6.97362 40.1292 7.20762 39.8832 7.50232C39.3872 8.10002 39.1391 8.92302 39.1391 9.97132C39.1391 10.9836 39.3889 11.7803 39.8938 12.3614C40.1425 12.6486 40.4527 12.8759 40.8014 13.0266C41.1501 13.1773 41.5283 13.2474 41.9079 13.2318C42.2828 13.2541 42.6577 13.1882 43.0024 13.0393C43.3472 12.8905 43.6523 12.6628 43.8931 12.3746C44.3532 11.804 44.5846 10.9889 44.5846 9.93452C44.5846 8.88012 44.3532 8.05182 43.8931 7.47602C43.6551 7.18302 43.3512 6.95052 43.0062 6.79742C42.6611 6.64432 42.2848 6.57502 41.9079 6.59522V6.60832ZM47.9555 14.4386V12.414C48.7266 13.0187 49.6786 13.3466 50.6585 13.3448C51.9785 13.3448 52.6384 12.9557 52.6384 12.1774C52.6444 11.977 52.5843 11.7802 52.4675 11.6173C52.3442 11.4522 52.1896 11.3128 52.0126 11.2071C51.7985 11.0765 51.5711 10.9689 51.3343 10.8863C51.0713 10.7917 50.7821 10.6865 50.4613 10.5655C50.0946 10.4214 49.7371 10.2545 49.3911 10.066C49.0999 9.90752 48.834 9.70632 48.6023 9.46912C48.3948 9.24992 48.233 8.99162 48.1264 8.70922C48.0154 8.39162 47.962 8.05682 47.9686 7.72052C47.9591 7.28752 48.0731 6.86062 48.2973 6.49002C48.523 6.13022 48.8256 5.82482 49.1834 5.59602C49.5719 5.34682 49.9981 5.16212 50.4455 5.04912C50.922 4.92522 51.4125 4.86332 51.9048 4.86502C52.7214 4.85132 53.5335 4.98862 54.3002 5.26992V7.18412C53.6119 6.71542 52.7954 6.47112 51.9627 6.48472C51.7101 6.47572 51.4575 6.49862 51.2107 6.55312C51.0091 6.59982 50.8164 6.67892 50.6401 6.78712C50.4923 6.87882 50.3673 7.00292 50.2746 7.15002C50.1858 7.28982 50.1392 7.45232 50.1405 7.61802C50.135 7.80242 50.1815 7.98462 50.2746 8.14392C50.3727 8.29972 50.506 8.43032 50.6638 8.52512C50.8608 8.64662 51.0696 8.74792 51.2869 8.82752C51.5288 8.91952 51.8128 9.01682 52.1205 9.12462C52.5018 9.28042 52.8748 9.45602 53.2379 9.65052C53.5447 9.81072 53.8278 10.0124 54.0794 10.25C54.3138 10.4671 54.5009 10.7303 54.6289 11.0231C54.7616 11.3574 54.8251 11.7152 54.8156 12.0748C54.8259 12.5251 54.7083 12.9691 54.4764 13.3553C54.2479 13.7219 53.9385 14.0313 53.5719 14.2598C53.1665 14.5082 52.722 14.686 52.2572 14.7857C51.746 14.9043 51.2227 14.9634 50.6979 14.9619C49.7594 14.9802 48.8279 14.7973 47.966 14.4255L47.9555 14.4386ZM60.6765 14.9672C59.1883 14.9672 57.9998 14.5158 57.1111 13.613C56.2223 12.7103 55.7779 11.5156 55.7779 10.0291C55.7779 8.40771 56.2407 7.14212 57.1663 6.23232C58.0918 5.32252 59.3408 4.86682 60.9132 4.86502C62.4207 4.86502 63.5951 5.30762 64.4366 6.19292C65.278 7.07812 65.6987 8.30512 65.6987 9.87402C65.6987 11.4131 65.2447 12.6454 64.3366 13.5709C63.4286 14.4965 62.2086 14.9619 60.6765 14.9672ZM60.7791 6.60832C60.3956 6.59152 60.0134 6.66352 59.6622 6.81862C59.3111 6.97362 59.0004 7.20762 58.7544 7.50232C58.2566 8.10002 58.0086 8.92302 58.0103 9.97132C58.0103 10.9836 58.2601 11.7803 58.7649 12.3614C59.0137 12.6486 59.3239 12.8759 59.6726 13.0266C60.0213 13.1773 60.3995 13.2474 60.7791 13.2318C61.154 13.2541 61.5289 13.1882 61.8736 13.0393C62.2184 12.8905 62.5235 12.6628 62.7643 12.3746C63.2244 11.804 63.4558 10.9889 63.4558 9.93452C63.4558 8.88012 63.2244 8.05182 62.7643 7.47602C62.5271 7.18412 62.2245 6.95222 61.8809 6.79922C61.5374 6.64622 61.1626 6.57622 60.787 6.59522L60.7791 6.60832ZM72.5749 2.23562C72.268 2.06062 71.9205 1.96982 71.5675 1.97272C70.5052 1.97272 69.9741 2.57302 69.9741 3.77382V5.08852H72.217V6.80292H69.9846V14.7384H67.7969V6.79242H66.1483V5.07802H67.7969V3.51352C67.7749 3.06352 67.8532 2.61432 68.026 2.19822C68.1988 1.78212 68.4618 1.40962 68.7961 1.10762C69.3238 0.696718 69.9423 0.418517 70.5998 0.296417C71.2573 0.174217 71.9345 0.211616 72.5749 0.405616V2.23562ZM79.0139 14.6359C78.4839 14.8702 77.9079 14.98 77.3289 14.9566C75.4559 14.9566 74.5199 14.0583 74.5199 12.2615V6.79242H72.9089V5.07802H74.5199V2.84562L76.7049 2.22252V5.07802H79.0139V6.79242H76.7159V11.6173C76.7159 12.1879 76.8209 12.5981 77.0259 12.8426C77.1619 12.9763 77.3249 13.0786 77.5049 13.1423C77.6839 13.2059 77.8749 13.2292 78.0649 13.2107C78.4119 13.2179 78.7509 13.1045 79.0249 12.8899L79.0139 14.6359ZM90.6939 2.23562C90.3869 2.06062 90.0399 1.96982 89.6869 1.97272C88.6239 1.97272 88.0929 2.57302 88.0929 3.77382V5.08852H90.3359V6.80292H88.1039V14.7384H85.9189V6.79242H84.2699V5.07802H85.9189V3.51352C85.8969 3.06352 85.9749 2.61432 86.1479 2.19822C86.3209 1.78212 86.5839 1.40962 86.9179 1.10762C87.4459 0.696718 88.0639 0.418517 88.7219 0.296417C89.3789 0.174217 90.0559 0.211616 90.6959 0.405616L90.6939 2.23562ZM95.6899 14.9672C94.2009 14.9672 93.0129 14.5158 92.1239 13.613C91.2349 12.7103 90.7909 11.5156 90.7909 10.0291C90.7909 8.40771 91.2539 7.14212 92.1789 6.23232C93.1049 5.32252 94.3539 4.86682 95.9259 4.86502C97.4339 4.86502 98.6079 5.30762 99.4499 6.19292C100.291 7.07812 100.712 8.30512 100.712 9.87402C100.712 11.4131 100.258 12.6454 99.3499 13.5709C98.4419 14.4965 97.2239 14.9619 95.6949 14.9672H95.6899ZM95.7919 6.60832C95.4089 6.59152 95.0269 6.66352 94.6749 6.81862C94.3239 6.97362 94.0139 7.20762 93.7679 7.50232C93.2679 8.09652 93.0179 8.91952 93.0179 9.97132C93.0179 10.9836 93.2679 11.7803 93.7729 12.3614C94.0219 12.6486 94.3319 12.8759 94.6809 13.0266C95.0289 13.1773 95.4069 13.2474 95.7869 13.2318C96.1619 13.2541 96.5369 13.1882 96.8819 13.0393C97.2259 12.8905 97.5309 12.6628 97.7719 12.3746C98.2319 11.804 98.4639 10.9889 98.4639 9.93452C98.4639 8.88012 98.2319 8.05182 97.7719 7.47602C97.5349 7.18452 97.2329 6.95282 96.8899 6.79982C96.5469 6.64682 96.1729 6.57672 95.7969 6.59522L95.7919 6.60832ZM107.953 7.17362C107.619 6.94572 107.218 6.83642 106.815 6.86342C106.493 6.86472 106.177 6.94532 105.894 7.09812C105.611 7.25082 105.37 7.47092 105.192 7.73892C104.759 8.32272 104.543 9.11761 104.543 10.1238V14.741H102.355V5.09112H104.543V7.07902H104.588C104.762 6.47112 105.104 5.92452 105.574 5.50132C105.981 5.13582 106.509 4.93352 107.057 4.93342C107.368 4.91442 107.68 4.97602 107.961 5.11222L107.953 7.17362ZM113.467 14.1783V11.8697C113.691 12.0703 113.939 12.2417 114.206 12.3798C114.498 12.5329 114.802 12.6605 115.116 12.7611C115.431 12.863 115.752 12.943 116.078 13.0004C116.37 13.0555 116.667 13.0846 116.964 13.0871C117.905 13.0871 118.607 12.9302 119.068 12.6165C119.292 12.4682 119.474 12.2643 119.596 12.0246C119.717 11.7849 119.775 11.5177 119.762 11.2492C119.77 10.9545 119.689 10.6641 119.53 10.4157C119.359 10.1612 119.14 9.94172 118.886 9.76882C118.577 9.55602 118.251 9.36872 117.911 9.20882C117.537 9.03002 117.135 8.84332 116.709 8.64872C116.249 8.40422 115.823 8.15442 115.426 7.90462C115.051 7.67042 114.706 7.39332 114.395 7.07902C114.106 6.77792 113.873 6.42802 113.706 6.04562C113.532 5.61872 113.447 5.16052 113.457 4.69942C113.443 4.11892 113.591 3.54622 113.885 3.04552C114.17 2.57812 114.558 2.18162 115.018 1.88592C115.508 1.57132 116.048 1.34202 116.614 1.20752C117.217 1.05912 117.835 0.985016 118.455 0.986616C119.87 0.986616 120.899 1.14702 121.545 1.46782V3.68182C120.779 3.12962 119.793 2.85262 118.586 2.85092C118.253 2.85112 117.92 2.88282 117.593 2.94552C117.283 3.00292 116.984 3.10762 116.706 3.25582C116.456 3.39222 116.24 3.58262 116.073 3.81332C115.903 4.05262 115.817 4.34062 115.826 4.63362C115.818 4.90872 115.883 5.18102 116.015 5.42242C116.156 5.65892 116.344 5.86392 116.567 6.02462C116.845 6.22712 117.142 6.40322 117.453 6.55052C117.8 6.72402 118.205 6.91072 118.663 7.11052C119.133 7.35592 119.577 7.61362 119.996 7.88362C120.396 8.13882 120.765 8.43882 121.098 8.77762C121.408 9.09602 121.663 9.46392 121.852 9.86612C122.043 10.2945 122.138 10.7593 122.131 11.2282C122.16 11.8037 122.033 12.3764 121.763 12.8856C121.493 13.3948 121.091 13.8215 120.598 14.1205C120.102 14.4267 119.555 14.6429 118.984 14.7594C118.348 14.8957 117.7 14.9627 117.051 14.9593C116.825 14.9593 116.549 14.9409 116.217 14.9067C115.886 14.8725 115.55 14.8225 115.205 14.7568C114.874 14.6932 114.547 14.6125 114.224 14.5149C113.958 14.4374 113.703 14.3242 113.467 14.1783ZM128.399 14.6122C127.87 14.8466 127.293 14.9563 126.714 14.933C124.842 14.933 123.906 14.0346 123.906 12.2378V6.79242H122.294V5.07802H123.906V2.84562L126.091 2.22252V5.07802H128.399V6.79242H126.091V11.6173C126.091 12.1879 126.196 12.5981 126.401 12.8426C126.537 12.9763 126.7 13.0786 126.879 13.1423C127.059 13.2059 127.25 13.2292 127.44 13.2107C127.787 13.2179 128.126 13.1045 128.399 12.8899V14.6122ZM137.381 14.7174H135.26V13.2081H135.223C134.948 13.7447 134.527 14.1925 134.008 14.4996C133.489 14.8067 132.894 14.9606 132.291 14.9435C131.344 14.9435 130.6 14.6806 130.064 14.1704C129.794 13.905 129.582 13.5857 129.443 13.2333C129.304 12.8809 129.24 12.5033 129.257 12.1248C129.257 10.3035 130.308 9.24212 132.412 8.94062L135.278 8.53561C135.278 7.15961 134.624 6.47162 133.316 6.47162C132.17 6.47022 131.063 6.89252 130.208 7.65742V5.76432C131.279 5.14792 132.497 4.83512 133.732 4.85982C136.17 4.85982 137.389 6.05962 137.389 8.45942L137.381 14.7174ZM135.278 9.98442L133.248 10.2711C132.747 10.3105 132.261 10.4663 131.831 10.7259C131.512 10.9486 131.353 11.3403 131.355 11.9013C131.35 12.0903 131.386 12.2781 131.462 12.4513C131.538 12.6245 131.651 12.7788 131.794 12.9031C132.122 13.1768 132.54 13.3167 132.967 13.2949C133.275 13.3032 133.582 13.2456 133.866 13.1259C134.15 13.0062 134.406 12.8271 134.615 12.6007C135.057 12.1202 135.292 11.4858 135.27 10.8337L135.278 9.98442ZM144.62 7.15782C144.286 6.92992 143.885 6.82062 143.482 6.84762C143.16 6.84892 142.844 6.92962 142.561 7.08232C142.278 7.23502 142.037 7.45512 141.859 7.72322C141.428 8.30692 141.21 9.10102 141.21 10.108V14.7253H139.025V5.07542H141.21V7.07902H141.247C141.422 6.47152 141.763 5.92512 142.233 5.50132C142.64 5.13582 143.168 4.93352 143.716 4.93342C144.028 4.91442 144.339 4.97602 144.62 5.11222V7.15782ZM151.417 14.6201C150.887 14.8545 150.311 14.9642 149.732 14.9409C147.86 14.9409 146.924 14.0425 146.924 12.2457V6.79242H145.312V5.07802H146.921V2.84562L149.109 2.22252V5.07802H151.415V6.79242H149.103V11.6173C149.103 12.1879 149.206 12.5981 149.414 12.8426C149.548 12.9764 149.711 13.0788 149.89 13.1424C150.069 13.2061 150.26 13.2294 150.45 13.2107C150.797 13.2183 151.136 13.1049 151.409 12.8899L151.417 14.6201ZM161.409 14.7253H159.224V13.1976H159.184C158.915 13.7493 158.491 14.2106 157.964 14.5249C157.437 14.8393 156.829 14.9929 156.216 14.9672C153.937 14.9672 152.798 13.5972 152.798 10.8574V5.07802H154.985V10.6181C154.985 12.3535 155.654 13.2204 156.991 13.2186C157.294 13.2261 157.594 13.1657 157.871 13.042C158.147 12.9182 158.392 12.7342 158.588 12.5034C159.023 11.9782 159.247 11.3099 159.216 10.6286V5.07802H161.401L161.409 14.7253ZM165.353 13.3027H165.314V19.1742H163.118V5.07802H165.303V6.77402H165.342C166.089 5.49262 167.182 4.85192 168.621 4.85192C169.848 4.85192 170.803 5.28222 171.485 6.14292C172.167 7.00362 172.509 8.15962 172.513 9.61112C172.513 11.2185 172.126 12.506 171.353 13.4737C170.979 13.9469 170.498 14.325 169.949 14.5772C169.401 14.8294 168.801 14.9486 168.198 14.9251C167.619 14.9431 167.047 14.8015 166.543 14.5158C166.039 14.2302 165.624 13.8114 165.342 13.3054L165.353 13.3027ZM165.295 9.49542V10.6918C165.281 11.353 165.522 11.9944 165.968 12.4824C166.206 12.7334 166.495 12.9293 166.816 13.0566C167.137 13.1838 167.482 13.2393 167.827 13.219C168.172 13.1987 168.508 13.1032 168.812 12.9391C169.116 12.7751 169.38 12.5465 169.586 12.2694C170.049 11.6383 170.28 10.7575 170.28 9.62682C170.28 8.67762 170.065 7.93612 169.634 7.39712C169.427 7.13492 169.161 6.92532 168.857 6.78552C168.554 6.64562 168.222 6.57952 167.888 6.59252C167.532 6.58042 167.179 6.64862 166.853 6.79202C166.528 6.93542 166.239 7.15032 166.008 7.42082C165.518 8.00012 165.261 8.74002 165.285 9.49802L165.295 9.49542ZM173.583 14.4229V12.3982C174.355 13.0031 175.308 13.331 176.289 13.329C177.603 13.329 178.266 12.9399 178.266 12.1616C178.273 11.9615 178.214 11.7647 178.098 11.6015C177.974 11.4361 177.818 11.2968 177.64 11.1913C177.426 11.0607 177.199 10.9532 176.962 10.8706C176.699 10.7759 176.41 10.6707 176.091 10.5498C175.724 10.4061 175.367 10.2393 175.021 10.0502C174.73 9.89242 174.464 9.69112 174.232 9.45332C174.025 9.23412 173.863 8.97582 173.757 8.69342C173.643 8.37642 173.589 8.04132 173.596 7.70482C173.588 7.27182 173.702 6.84532 173.925 6.47422C174.15 6.11442 174.453 5.80912 174.811 5.58022C175.199 5.33102 175.626 5.14632 176.073 5.03332C176.55 4.90962 177.042 4.84772 177.535 4.84922C178.351 4.83562 179.162 4.97292 179.928 5.25422V7.16842C179.24 6.69932 178.423 6.45502 177.59 6.46892C177.339 6.46602 177.088 6.49512 176.843 6.55572C176.642 6.60202 176.449 6.68102 176.273 6.78972C176.124 6.88062 175.998 7.00482 175.905 7.15262C175.818 7.29312 175.772 7.45532 175.773 7.62062C175.768 7.80462 175.814 7.98652 175.905 8.14652C176.003 8.30302 176.137 8.43372 176.297 8.52782C176.492 8.64982 176.7 8.75112 176.917 8.83012C177.159 8.92222 177.443 9.01952 177.751 9.12732C178.132 9.28252 178.505 9.45812 178.868 9.65312C179.176 9.81332 179.46 10.015 179.712 10.2526C179.937 10.4725 180.116 10.7354 180.238 11.0257C180.373 11.3595 180.437 11.7176 180.427 12.0774C180.438 12.5278 180.32 12.9718 180.088 13.358C179.859 13.724 179.55 14.0333 179.184 14.2625C178.778 14.5105 178.334 14.6883 177.869 14.7884C177.358 14.9071 176.834 14.9662 176.31 14.9645C175.369 14.9828 174.436 14.7989 173.572 14.4255L173.583 14.4229Z" fill="white"/>
</svg>
