<svg version="1.1" id="Layer_1" xmlns="http://www.w3.org/2000/svg" xmlns:xlink="http://www.w3.org/1999/xlink" x="0px" y="0px"
	 width="100%" viewBox="0 0 2482 966" enable-background="new 0 0 2482 966" xml:space="preserve">
<path fill="#FFFFFF" opacity="1.000000" stroke="none" 
	d="
M1725.000000,967.000000 
	C1150.000122,967.000000 575.500122,967.000000 1.000154,967.000000 
	C1.000103,645.000122 1.000103,323.000214 1.000051,1.000241 
	C828.333069,1.000160 1655.666138,1.000160 2482.999512,1.000080 
	C2482.999512,322.999756 2482.999512,644.999512 2482.999756,966.999634 
	C2230.500000,967.000000 1978.000000,967.000000 1725.000000,967.000000 
M1831.549316,472.000000 
	C1828.789062,472.000000 1826.028931,472.000000 1822.881104,472.000000 
	C1822.881104,505.323792 1822.881104,537.916138 1822.881104,570.660645 
	C1789.094849,570.660645 1755.720215,570.660645 1721.759277,570.660645 
	C1721.759277,537.612793 1721.759277,504.900208 1721.759277,472.314636 
	C1702.577515,472.314636 1683.984497,472.314636 1665.380127,472.314636 
	C1665.380127,554.998413 1665.380127,637.367004 1665.380127,719.719421 
	C1684.353760,719.719421 1702.946045,719.719421 1722.123047,719.719421 
	C1722.123047,686.398438 1722.123047,653.352661 1722.123047,620.253052 
	C1755.967896,620.253052 1789.224609,620.253052 1823.067871,620.253052 
	C1823.067871,653.545715 1823.067871,686.591553 1823.067871,719.595093 
	C1842.368652,719.595093 1861.078979,719.595093 1879.706421,719.595093 
	C1879.706421,636.939087 1879.706421,554.688354 1879.706421,472.000000 
	C1863.790771,472.000000 1848.164795,472.000000 1831.549316,472.000000 
M2085.000000,644.500000 
	C2085.000000,669.581238 2085.000000,694.662476 2085.000000,719.718689 
	C2103.688965,719.718689 2121.614746,719.718689 2140.186279,719.718689 
	C2140.186279,713.486572 2140.186279,707.517456 2140.186279,702.433411 
	C2146.702881,707.601135 2152.681396,713.736389 2159.855225,717.718018 
	C2171.891113,724.398071 2185.111816,725.674194 2198.979980,724.213440 
	C2213.541504,722.679688 2226.695068,718.070923 2237.566895,708.686951 
	C2258.158691,690.913757 2267.005127,667.228271 2268.911133,640.688477 
	C2269.485840,632.685547 2268.965820,624.606262 2269.008789,616.562317 
	C2269.069580,605.262573 2266.763916,594.436646 2263.089600,583.781982 
	C2258.324951,569.964905 2250.456787,558.303101 2238.518799,550.006592 
	C2224.391602,540.188599 2208.508301,537.291138 2191.254639,538.781494 
	C2172.290527,540.419617 2156.990723,547.982849 2144.962646,562.539062 
	C2143.694580,564.073547 2142.380371,565.569885 2141.087646,567.083923 
	C2140.687012,566.937073 2140.286621,566.790283 2139.885986,566.643433 
	C2139.885986,530.490234 2139.885986,494.337067 2139.885986,458.315979 
	C2121.241455,458.315979 2103.314941,458.315979 2085.000000,458.315979 
	C2085.000000,520.254089 2085.000000,581.877014 2085.000000,644.500000 
M1070.000000,530.500000 
	C1070.000000,540.230530 1070.000000,549.961060 1070.000000,561.224487 
	C1068.260742,559.252563 1067.602783,558.475159 1066.911987,557.728149 
	C1061.883789,552.290894 1057.069092,546.769653 1049.845947,543.823853 
	C1038.017822,539.000061 1026.059448,537.679932 1013.278259,538.809509 
	C988.759705,540.976379 970.534729,552.975464 957.160950,572.795349 
	C946.629639,588.402588 942.323181,606.326294 941.129700,624.847900 
	C940.151489,640.028992 940.926819,655.251831 945.032959,670.047485 
	C950.718811,690.535278 961.610901,707.213257 981.159668,716.988037 
	C994.371826,723.594360 1008.298523,725.971008 1023.173096,724.163147 
	C1035.391846,722.678040 1046.584839,719.365051 1056.126709,711.419983 
	C1061.078369,707.296814 1065.909424,703.028870 1070.145996,699.384644 
	C1070.145996,705.026001 1070.145996,712.278870 1070.145996,719.651855 
	C1088.587646,719.651855 1106.630493,719.651855 1124.590332,719.651855 
	C1124.590332,632.270325 1124.590332,545.237610 1124.590332,458.309662 
	C1106.253296,458.309662 1088.327393,458.309662 1070.000000,458.309662 
	C1070.000000,482.244690 1070.000000,505.872345 1070.000000,530.500000 
M542.535278,577.076233 
	C531.956421,561.683411 518.185852,550.168457 500.384796,544.295288 
	C484.681885,539.114380 468.526550,537.340576 451.840485,538.790955 
	C438.618103,539.940308 425.940704,542.203674 413.756226,547.579712 
	C392.421204,556.993225 377.724579,572.585388 369.915253,594.437317 
	C362.045380,616.458679 362.017395,638.980225 367.320282,661.534851 
	C371.539398,679.479919 381.181824,694.367432 395.557526,705.679382 
	C413.429779,719.742920 434.697052,724.389832 456.913025,724.862427 
	C465.266510,725.040039 473.736328,724.184326 482.007660,722.878540 
	C500.064026,720.027832 516.196350,712.672791 529.494751,699.935608 
	C547.352905,682.831238 554.408691,660.948059 555.921448,637.009399 
	C557.243164,616.094666 553.795654,596.040649 542.535278,577.076233 
M334.500000,472.000000 
	C294.425476,472.000000 254.350983,472.000000 214.249649,472.000000 
	C214.249649,554.987915 214.249649,637.231079 214.249649,719.675659 
	C233.208466,719.675659 251.916489,719.675659 271.206421,719.675659 
	C271.206421,687.645874 271.206421,655.936462 271.206421,623.827637 
	C298.045258,623.827637 324.303162,623.827637 350.633728,623.827637 
	C350.633728,608.374023 350.633728,593.331482 350.633728,577.884766 
	C324.012573,577.884766 297.754639,577.884766 271.336121,577.884766 
	C271.336121,557.767151 271.336121,538.059326 271.336121,517.769043 
	C300.378540,517.769043 329.089600,517.769043 357.693237,517.769043 
	C357.693237,502.257690 357.693237,487.332336 357.693237,472.000000 
	C350.093994,472.000000 342.796997,472.000000 334.500000,472.000000 
M769.512146,720.000000 
	C783.593994,720.000000 797.675842,720.000000 812.000000,720.000000 
	C812.000000,717.412659 812.000000,715.593628 812.000000,713.774597 
	C812.000000,682.450684 811.824524,651.125305 812.087952,619.803589 
	C812.190735,607.588074 815.910889,596.536682 825.435974,588.037537 
	C836.543274,578.126465 857.258545,578.231689 866.152832,592.296936 
	C870.998352,599.959473 872.829102,608.395081 872.897888,617.085388 
	C873.153809,649.406982 873.000000,681.731812 873.000000,714.055420 
	C873.000000,715.968140 873.000000,717.880859 873.000000,719.697632 
	C891.734314,719.697632 909.658875,719.697632 928.000000,719.697632 
	C928.000000,717.602234 928.000000,715.804810 928.000000,714.007385 
	C928.000000,678.018188 928.192627,642.027283 927.862183,606.041138 
	C927.781250,597.229553 926.821716,588.235474 924.784119,579.678162 
	C921.895691,567.547424 916.241028,556.635559 905.764343,548.927856 
	C890.656982,537.813293 873.396790,536.497864 855.895081,539.323181 
	C838.626648,542.110901 824.843811,551.423950 814.930420,566.093262 
	C814.405518,566.870056 813.452576,567.357544 811.807495,568.715454 
	C811.807495,559.446350 811.807495,551.372009 811.807495,543.250366 
	C793.370972,543.250366 775.447144,543.250366 757.312317,543.250366 
	C757.312317,602.200439 757.312317,660.899902 757.312317,720.000000 
	C761.252747,720.000000 764.885925,720.000000 769.512146,720.000000 
M661.970276,680.937439 
	C660.522705,681.188965 659.078369,681.461182 657.627014,681.688599 
	C649.216003,683.006531 635.645081,680.266907 630.260498,670.952148 
	C626.451477,664.362976 624.098389,657.473511 624.065247,650.010132 
	C623.915771,616.347412 624.000000,582.683655 624.000000,549.020264 
	C624.000000,547.099915 624.000000,545.179626 624.000000,543.279907 
	C605.316223,543.279907 587.389526,543.279907 569.000000,543.279907 
	C569.000000,545.346069 569.000000,547.138123 569.000000,548.930237 
	C569.000000,584.593445 569.111877,620.257141 568.937622,655.919495 
	C568.878967,667.922302 570.663940,679.512878 575.063049,690.625732 
	C579.872253,702.775024 587.327271,712.679565 599.647156,718.302734 
	C611.903015,723.896667 624.567505,725.574219 637.978149,724.126526 
	C654.008240,722.395874 666.972046,715.529297 677.255127,703.269226 
	C679.515747,700.573853 681.902466,697.984253 685.253052,694.188110 
	C685.253052,703.778931 685.253052,711.814392 685.253052,719.677124 
	C703.770813,719.677124 721.698242,719.677124 739.602417,719.677124 
	C739.602417,660.645020 739.602417,601.936768 739.602417,543.299683 
	C721.276184,543.299683 703.349121,543.299683 685.000000,543.299683 
	C685.000000,545.391968 685.000000,547.189087 685.000000,548.986206 
	C685.000000,580.649780 685.162415,612.314514 684.933044,643.976440 
	C684.814087,660.408508 679.315369,673.994263 661.970276,680.937439 
M2068.000000,648.500000 
	C2068.000000,613.422424 2068.000000,578.344849 2068.000000,543.276001 
	C2049.320557,543.276001 2031.395630,543.276001 2013.000000,543.276001 
	C2013.000000,545.336792 2013.000000,547.127625 2013.000000,548.918457 
	C2013.000000,581.410767 2013.248779,613.905884 2012.893921,646.394287 
	C2012.719238,662.397888 2004.837280,678.257996 1985.641846,681.699951 
	C1977.437622,683.171021 1963.100464,679.522888 1958.226318,670.984375 
	C1954.257324,664.031128 1952.122803,656.766357 1952.079468,649.020996 
	C1951.893188,615.696594 1952.000000,582.370483 1952.000000,549.045044 
	C1952.000000,547.122559 1952.000000,545.200012 1952.000000,543.268311 
	C1933.336304,543.268311 1915.411499,543.268311 1897.000000,543.268311 
	C1897.000000,545.308472 1897.000000,547.102539 1897.000000,548.896545 
	C1897.000000,584.221558 1896.804688,619.548340 1897.137573,654.870239 
	C1897.220581,663.682678 1898.209595,672.661804 1900.177246,681.244507 
	C1904.189941,698.747681 1913.408936,712.885498 1930.754028,719.792053 
	C1942.124390,724.319580 1954.058594,725.737000 1966.469604,724.134277 
	C1982.403076,722.076599 1995.500610,715.476196 2005.613525,702.956909 
	C2007.722778,700.345825 2010.083862,697.938232 2013.232788,694.429932 
	C2013.232788,703.765198 2013.232788,711.797363 2013.232788,719.689819 
	C2031.748413,719.689819 2049.674072,719.689819 2068.000000,719.689819 
	C2068.000000,696.087952 2068.000000,672.793945 2068.000000,648.500000 
M1138.016724,646.153809 
	C1138.679688,650.359375 1139.188232,654.596252 1140.031494,658.765320 
	C1144.377319,680.247192 1154.562134,698.104248 1173.074097,710.476135 
	C1189.059692,721.159546 1207.339233,724.242065 1226.018677,724.834167 
	C1235.195557,725.125122 1244.443237,723.831726 1253.631226,722.963562 
	C1265.942383,721.800293 1277.731445,718.551025 1289.045288,713.515442 
	C1291.900269,712.244690 1293.212524,710.744141 1293.113525,707.281555 
	C1292.804321,696.461548 1293.013062,685.626953 1292.981689,674.798218 
	C1292.978271,673.589844 1292.721558,672.382263 1292.554565,670.932678 
	C1291.195190,671.510925 1290.251221,671.800232 1289.419434,672.282898 
	C1268.615601,684.354980 1246.349731,687.983154 1222.928955,682.909485 
	C1203.517212,678.704285 1195.014038,666.099060 1193.207031,647.850708 
	C1231.455078,647.850708 1269.640625,647.850708 1308.036743,647.850708 
	C1307.562744,629.986389 1309.444824,612.731323 1305.030273,595.757202 
	C1300.587891,578.675842 1292.176270,564.408325 1278.058594,553.362488 
	C1263.390991,541.886536 1246.261963,538.805237 1228.603394,538.204468 
	C1216.151733,537.780823 1203.815796,539.900085 1192.074951,544.863525 
	C1169.353027,554.469360 1153.614746,570.606689 1144.681885,593.608032 
	C1138.197876,610.304138 1137.591797,627.669556 1138.016724,646.153809 
M1540.551270,539.000000 
	C1533.339966,538.999329 1526.128540,539.040527 1518.917603,538.988159 
	C1508.093872,538.909485 1497.717285,541.244873 1487.672974,545.017090 
	C1473.033569,550.515015 1461.173218,559.266602 1454.455444,573.985352 
	C1450.526123,582.594543 1450.906250,591.658264 1451.007446,600.725952 
	C1451.170654,615.333557 1457.388916,627.208679 1469.464478,634.858032 
	C1479.065063,640.939636 1489.815796,645.295776 1500.293945,649.872681 
	C1508.212158,653.331360 1516.671997,655.554016 1524.572632,659.046692 
	C1529.536377,661.241089 1534.167114,664.795410 1533.910278,671.168457 
	C1533.702881,676.315369 1530.895874,680.777710 1526.078247,682.210815 
	C1518.610840,684.432129 1510.690430,687.052429 1503.137085,686.598022 
	C1492.656860,685.967590 1482.164429,683.242249 1472.010376,680.274353 
	C1464.899658,678.196045 1458.345581,674.213501 1451.000000,670.831543 
	C1451.000000,684.882935 1451.099976,698.347046 1450.927979,711.807678 
	C1450.886108,715.072510 1452.079102,716.160645 1455.107666,717.201111 
	C1470.348999,722.437500 1486.165161,724.464294 1502.060547,724.767578 
	C1512.848022,724.973328 1523.776733,723.578064 1534.462524,721.811462 
	C1547.397705,719.672974 1559.382324,714.531494 1569.454712,705.937866 
	C1582.350220,694.935791 1587.600830,680.730530 1587.141968,663.768433 
	C1586.701782,647.492371 1580.290283,634.879578 1566.829346,626.013672 
	C1554.666992,618.003113 1540.874878,613.622131 1527.248291,608.818542 
	C1521.014771,606.621094 1515.020508,603.362061 1509.451660,599.759094 
	C1502.537964,595.285889 1503.386475,584.110901 1512.503784,580.252808 
	C1519.794434,577.167603 1527.355103,576.416504 1535.387085,576.806946 
	C1549.811157,577.508118 1562.954834,581.854370 1575.813721,588.424316 
	C1575.813721,574.002319 1575.813721,559.755554 1575.813721,544.403503 
	C1564.369751,542.601746 1552.931641,540.800903 1540.551270,539.000000 
M1378.000000,676.500000 
	C1378.000000,663.009766 1377.536377,649.497437 1378.175903,636.037598 
	C1378.552856,628.102783 1379.789062,619.965637 1382.208618,612.423096 
	C1386.848755,597.958374 1398.526489,586.492737 1416.227173,588.079956 
	C1423.760742,588.755554 1431.215576,590.309082 1438.740845,591.468933 
	C1438.740845,575.532349 1438.740845,558.466370 1438.740845,541.348511 
	C1410.552368,535.465210 1390.567017,545.644409 1378.764282,572.422607 
	C1378.424927,571.999023 1378.085571,571.575439 1377.746216,571.151855 
	C1377.746216,561.889587 1377.746216,552.627319 1377.746216,543.388794 
	C1359.316406,543.388794 1341.279541,543.388794 1323.426514,543.388794 
	C1323.426514,602.458984 1323.426514,661.139404 1323.426514,719.684937 
	C1341.772949,719.684937 1359.691284,719.684937 1378.000000,719.684937 
	C1378.000000,705.415710 1378.000000,691.457825 1378.000000,676.500000 
M317.454895,248.000000 
	C312.136322,248.000000 306.817749,248.000000 301.515533,248.000000 
	C291.042572,274.003174 280.655426,299.793304 270.130890,325.924500 
	C259.878845,299.881653 249.688110,273.994537 239.599579,248.367081 
	C230.917496,248.367081 222.515762,248.367081 214.373810,248.367081 
	C214.373810,283.119629 214.373810,317.504242 214.373810,351.777893 
	C220.029602,351.777893 225.309402,351.777893 231.005341,351.777893 
	C231.005341,325.888916 231.005341,300.217438 231.005341,274.545990 
	C233.312881,277.460419 234.673676,280.616730 235.965530,283.800964 
	C243.975052,303.543427 252.087082,323.245514 259.918060,343.058624 
	C263.779327,352.828094 263.581512,353.005859 273.662994,351.916107 
	C274.829773,351.790009 276.481689,350.779663 276.886383,349.769653 
	C284.688080,330.299438 292.315369,310.759399 300.030975,291.254456 
	C302.288544,285.547241 304.707642,279.903900 307.052765,274.231293 
	C307.425110,274.339111 307.797455,274.446899 308.169800,274.554718 
	C308.169800,300.272034 308.169800,325.989349 308.169800,351.692810 
	C314.298431,351.692810 320.028076,351.692810 325.685608,351.692810 
	C325.685608,317.001129 325.685608,282.617554 325.685608,248.000000 
	C323.060852,248.000000 320.748627,248.000000 317.454895,248.000000 
M1448.000000,301.500000 
	C1448.000000,329.257721 1448.000000,357.015411 1448.000000,384.656067 
	C1454.038574,384.656067 1459.437866,384.656067 1465.111816,384.656067 
	C1465.111816,370.730988 1465.111816,357.147461 1465.111816,343.138123 
	C1465.871338,343.638336 1466.315918,343.804871 1466.578369,344.122070 
	C1479.651489,359.927094 1508.761353,354.631500 1516.496826,333.209625 
	C1520.660889,321.678253 1521.557739,309.984436 1518.576050,298.471375 
	C1513.214722,277.771271 1498.375854,272.129578 1479.014404,277.790497 
	C1473.922607,279.279266 1469.743896,283.891327 1464.933838,287.215607 
	C1464.933838,284.075989 1464.933838,280.690674 1464.933838,277.291016 
	C1459.074585,277.291016 1453.676147,277.291016 1448.000000,277.291016 
	C1448.000000,285.219452 1448.000000,292.859711 1448.000000,301.500000 
M1081.612183,335.004242 
	C1077.822510,333.095062 1074.032837,331.185883 1070.000000,329.154205 
	C1070.000000,333.928650 1070.481079,338.489319 1069.864380,342.896332 
	C1069.250854,347.281738 1071.567017,349.070679 1074.849976,349.883057 
	C1090.267822,353.698242 1105.600586,355.349518 1120.994751,349.113708 
	C1137.086426,342.595398 1140.973999,324.126007 1133.245239,310.909302 
	C1127.376343,300.873230 1116.908081,296.281830 1107.144287,291.045074 
	C1102.462158,288.533936 1097.515991,286.414703 1093.153198,283.438263 
	C1089.212524,280.749908 1086.662598,272.737305 1091.912476,267.411316 
	C1097.466919,261.776215 1104.563232,260.918304 1111.286499,261.318939 
	C1118.297974,261.736755 1125.161255,264.641418 1131.855957,266.397614 
	C1131.855957,261.397522 1131.855957,255.429977 1131.855957,249.511810 
	C1119.899902,245.603271 1109.844482,245.035431 1097.394897,247.081512 
	C1089.612549,248.360550 1082.117188,251.210678 1076.719360,257.000580 
	C1065.680420,268.841370 1068.047729,288.336151 1081.057739,296.902985 
	C1088.469971,301.783691 1096.582031,305.589905 1104.258789,310.085144 
	C1107.889648,312.211212 1111.718140,314.349182 1114.613647,317.307404 
	C1120.421021,323.240326 1118.827881,331.454224 1111.281860,335.167084 
	C1101.743896,339.859985 1092.029175,338.841675 1081.612183,335.004242 
M679.501831,352.093201 
	C689.834290,350.481171 697.422974,344.855743 702.536621,335.917114 
	C708.504211,325.485931 709.213684,314.207458 706.822937,302.720032 
	C704.216125,290.194550 697.183777,280.873413 684.580811,277.486572 
	C678.359070,275.814636 671.507446,275.899323 664.970825,276.111389 
	C652.184387,276.526245 642.086548,282.323181 636.147095,293.775269 
	C631.417419,302.894684 630.041016,312.690308 631.856445,323.111542 
	C633.636780,333.331757 638.202332,341.223907 646.622253,347.314606 
	C656.586060,354.522034 667.732361,353.085266 679.501831,352.093201 
M957.261353,280.036041 
	C946.277771,274.572235 934.671875,274.622772 923.263794,277.491455 
	C911.266602,280.508240 902.657227,288.216980 899.982971,300.626709 
	C898.410950,307.921692 897.497131,315.714478 898.275879,323.072937 
	C899.323669,332.973328 903.979187,341.559723 912.803467,347.351868 
	C922.680725,353.835266 933.701294,354.150299 944.599609,352.523254 
	C953.712769,351.162750 961.519043,346.614380 967.161743,338.599182 
	C974.186096,328.621368 975.026794,317.377777 973.733643,306.149750 
	C972.513733,295.557190 967.658325,286.245941 957.261353,280.036041 
M554.521240,286.014984 
	C552.127258,284.036102 549.920654,281.755157 547.305176,280.133423 
	C538.528442,274.691315 528.564514,275.222412 519.060852,276.221924 
	C507.186920,277.470764 497.877228,283.611084 492.030243,294.587769 
	C487.121552,303.802979 487.030853,313.767761 488.275970,323.396301 
	C489.765533,334.915375 495.750000,344.134399 506.883911,349.563202 
	C514.672668,353.360870 522.761292,353.228241 530.913269,352.936066 
	C541.615295,352.552521 550.344482,347.787811 556.848694,339.373749 
	C564.483398,329.497284 564.939087,317.756195 563.776489,306.128235 
	C563.057129,298.932739 560.462952,291.935455 554.521240,286.014984 
M1253.000000,315.500763 
	C1253.000000,310.504608 1253.073486,305.507141 1252.985107,300.512573 
	C1252.782593,289.057465 1246.714966,279.232605 1237.151367,277.248962 
	C1223.328613,274.381866 1209.606934,274.908051 1197.414795,282.415680 
	C1197.414795,287.856689 1197.414795,292.869873 1197.414795,298.487671 
	C1205.405884,292.595978 1213.403687,288.554871 1223.001221,288.992523 
	C1231.043701,289.359253 1236.780029,296.247101 1235.330933,303.704163 
	C1227.875610,304.807190 1220.458618,305.856995 1213.057495,307.009583 
	C1198.162354,309.329285 1189.577759,316.760834 1190.031006,333.073120 
	C1190.303833,342.896393 1195.872437,349.712769 1205.575439,352.094147 
	C1217.165894,354.938751 1227.376587,352.700592 1235.955322,341.973206 
	C1235.955322,346.019348 1235.955322,348.875214 1235.955322,351.700256 
	C1241.949219,351.700256 1247.344971,351.700256 1253.000000,351.700256 
	C1253.000000,339.768402 1253.000000,328.134430 1253.000000,315.500763 
M1403.726562,352.756317 
	C1408.468506,349.845215 1413.210327,346.934113 1418.138672,343.908569 
	C1418.138672,346.301941 1418.138672,349.020355 1418.138672,351.686157 
	C1424.308350,351.686157 1430.040649,351.686157 1436.000000,351.686157 
	C1436.000000,339.067047 1436.000000,326.760406 1436.000000,314.453766 
	C1436.000000,302.034851 1436.000000,289.615936 1436.000000,277.352600 
	C1429.606567,277.352600 1423.873169,277.352600 1418.000000,277.352600 
	C1418.000000,291.854095 1418.409912,306.022003 1417.769287,320.142303 
	C1417.555664,324.851135 1415.497559,330.019379 1412.791870,333.951935 
	C1408.067993,340.818176 1396.807129,341.214233 1391.562012,334.725433 
	C1389.026367,331.588562 1387.355103,326.902802 1387.200684,322.845734 
	C1386.675659,309.039948 1387.007568,295.201904 1386.988892,281.376160 
	C1386.987061,279.953583 1386.828369,278.531219 1386.748657,277.209625 
	C1380.662842,277.209625 1375.050415,277.209625 1369.999023,277.209625 
	C1369.999023,295.450775 1369.598633,313.488525 1370.143311,331.497711 
	C1370.491211,342.993774 1380.669922,354.112701 1393.383911,353.038361 
	C1396.526978,352.772766 1399.710327,352.983032 1403.726562,352.756317 
M861.000000,267.521667 
	C861.000000,270.619232 861.000000,273.716797 861.000000,277.241760 
	C856.286438,277.241760 852.216370,277.241760 848.371826,277.241760 
	C848.371826,282.102936 848.371826,286.504150 848.371826,291.163086 
	C852.691895,291.163086 856.640198,291.163086 861.024841,291.163086 
	C861.024841,311.494507 861.024841,331.554443 861.024841,351.739868 
	C866.869141,351.739868 872.264282,351.739868 878.102783,351.739868 
	C878.102783,331.425201 878.102783,311.365662 878.102783,290.858612 
	C883.945129,290.858612 889.353088,290.858612 894.676025,290.858612 
	C894.676025,286.000732 894.676025,281.604279 894.676025,276.762390 
	C888.950989,276.762390 883.544189,276.762390 878.182922,276.762390 
	C877.582642,264.420502 878.434998,260.117706 882.629272,256.973236 
	C887.458679,253.352631 892.704651,254.854568 897.999390,256.599121 
	C897.999390,252.446640 898.144592,248.610931 897.917786,244.797348 
	C897.842041,243.524689 897.034729,241.418579 896.186951,241.208847 
	C889.940735,239.663635 883.700256,239.642868 877.481506,241.856689 
	C866.618896,245.723724 859.668518,254.479706 861.000000,267.521667 
M739.999023,349.298187 
	C739.999023,329.902863 739.999023,310.507507 739.999023,290.843964 
	C746.020813,290.843964 751.301819,290.843964 756.759888,290.843964 
	C756.759888,286.170258 756.759888,281.775604 756.759888,276.929810 
	C751.127136,276.929810 745.717285,276.929810 740.381653,276.929810 
	C738.229492,257.477509 745.470215,251.520660 759.999634,256.579651 
	C759.999634,252.691666 759.917053,248.864594 760.028503,245.043167 
	C760.103455,242.470764 759.481140,240.890060 756.476318,240.969131 
	C751.813477,241.091797 746.972534,240.210846 742.513611,241.174240 
	C731.574951,243.537643 722.201599,251.704285 722.961487,264.389862 
	C723.206604,268.482452 723.000000,272.602112 723.000000,277.141205 
	C718.391052,277.141205 714.314148,277.141205 710.320129,277.141205 
	C710.320129,281.998962 710.320129,286.394470 710.320129,291.235779 
	C714.706421,291.235779 718.775024,291.235779 723.264465,291.235779 
	C723.264465,311.742920 723.264465,331.797974 723.264465,351.999084 
	C728.192078,351.999084 732.682800,352.098511 737.162415,351.920105 
	C738.125488,351.881744 739.048462,350.839386 739.999023,349.298187 
M617.998718,277.496552 
	C608.874512,277.333710 599.642578,276.229736 590.654907,277.258850 
	C580.614685,278.408447 572.488403,287.105347 571.988098,294.677155 
	C571.255859,305.759613 573.618286,312.306274 587.498535,318.185944 
	C592.703613,320.390808 597.907349,322.614014 603.002930,325.056000 
	C605.637085,326.318390 607.199280,328.330658 607.109253,331.712891 
	C607.018860,335.113983 605.389526,337.389557 602.579956,337.949615 
	C597.543213,338.953644 592.187500,340.168091 587.258423,339.403442 
	C582.099060,338.603088 577.285034,335.576813 572.201050,333.474243 
	C572.201050,338.732971 572.201050,344.162170 572.201050,349.544342 
	C583.305664,354.182678 594.739868,353.980042 606.103638,351.887695 
	C615.305054,350.193542 622.449524,344.965027 624.647827,335.483826 
	C626.503967,327.478088 624.404541,319.734467 617.263916,315.051117 
	C611.532349,311.291962 604.975891,308.682190 598.573181,306.085724 
	C592.346741,303.560822 589.067688,300.665680 589.601379,296.923553 
	C590.244507,292.415131 595.245544,289.116577 601.614868,289.000397 
	C601.781433,288.997345 601.954224,288.971039 602.113953,289.004211 
	C608.351501,290.299530 614.587891,291.600464 620.996826,292.936615 
	C620.996826,289.216278 621.106079,284.739868 620.896851,280.278381 
	C620.858887,279.469177 619.516357,278.721191 617.998718,277.496552 
M1561.242554,351.997528 
	C1564.220215,350.783661 1567.254272,349.691254 1570.165771,348.335205 
	C1583.676514,342.042542 1583.038696,319.806427 1571.984863,314.474060 
	C1564.722900,310.970856 1557.495361,307.388306 1550.145508,304.078644 
	C1547.022461,302.672333 1544.819580,300.907684 1545.019897,297.251953 
	C1545.237549,293.283417 1547.709717,291.101044 1551.273438,290.027710 
	C1559.909668,287.426727 1567.854004,289.511108 1575.725830,294.176880 
	C1575.725830,288.558167 1575.725830,283.361938 1575.725830,277.874512 
	C1561.614502,275.452911 1547.913818,273.305389 1535.058350,282.313751 
	C1523.889404,290.140320 1524.912964,308.806488 1535.421143,314.018066 
	C1541.898560,317.230560 1548.834595,319.597321 1555.051270,323.224060 
	C1558.275269,325.104919 1561.124390,328.577209 1562.612549,331.996552 
	C1563.172729,333.283722 1559.825073,337.124542 1557.494873,338.566986 
	C1555.338379,339.901825 1552.173706,339.798157 1549.431274,339.960449 
	C1541.339600,340.439301 1534.343018,337.158508 1527.284668,332.703003 
	C1527.284668,338.622986 1527.284668,344.015137 1527.284668,349.577240 
	C1537.988281,353.925201 1549.105713,353.933563 1561.242554,351.997528 
M1168.738159,276.989868 
	C1168.158813,275.714111 1167.121460,274.453308 1167.079102,273.159973 
	C1166.894653,267.530945 1167.000000,261.892395 1167.000000,255.480377 
	C1160.616577,257.209808 1154.807617,258.783569 1148.815430,260.406982 
	C1148.815430,266.098328 1148.815430,271.373413 1148.815430,277.086304 
	C1144.782593,277.086304 1141.036865,277.086304 1137.293213,277.086304 
	C1137.293213,281.942688 1137.293213,286.340027 1137.293213,291.184540 
	C1141.318604,291.184540 1145.059814,291.184540 1150.000122,291.184540 
	C1150.000122,307.193695 1149.802490,322.752930 1150.103516,338.302490 
	C1150.213867,344.003418 1153.373535,348.490479 1158.721680,350.885437 
	C1166.409180,354.327972 1174.395874,353.546356 1182.292480,351.778595 
	C1183.388550,351.533234 1184.764038,349.655426 1184.875366,348.430115 
	C1185.214478,344.699585 1184.998413,340.918549 1184.998413,336.863312 
	C1183.609985,337.136017 1182.770508,337.160645 1182.048218,337.464142 
	C1172.832520,341.336731 1167.024292,337.459137 1167.002197,327.374268 
	C1166.989502,321.545441 1167.000000,315.716522 1167.000000,309.887665 
	C1167.000000,303.636017 1167.000000,297.384369 1167.000000,290.703339 
	C1173.442139,290.703339 1179.180054,290.703339 1184.776367,290.703339 
	C1184.776367,285.965759 1184.776367,281.684662 1184.776367,276.998962 
	C1179.608032,276.998962 1174.653198,276.998962 1168.738159,276.989868 
M1316.566895,277.000000 
	C1315.129150,277.080750 1313.691406,277.161499 1312.315186,277.238800 
	C1312.315186,281.988068 1312.315186,286.385620 1312.315186,291.229462 
	C1316.362427,291.229462 1320.102539,291.229462 1325.000366,291.229462 
	C1325.000366,307.245300 1324.786621,322.811005 1325.116333,338.365143 
	C1325.231567,343.797516 1328.182739,348.290161 1333.332520,350.689301 
	C1341.143921,354.328430 1349.278320,353.593323 1357.351074,351.766602 
	C1358.397217,351.529907 1359.793945,349.927582 1359.876587,348.868134 
	C1360.179565,344.978027 1359.996704,341.050049 1359.996704,336.922821 
	C1358.712769,337.088501 1358.018188,337.038544 1357.439209,337.273590 
	C1347.502441,341.307495 1342.006836,337.595551 1342.000732,326.811005 
	C1341.996704,319.649780 1342.000000,312.488556 1342.000000,305.327332 
	C1342.000000,300.577911 1342.000000,295.828461 1342.000000,290.833801 
	C1348.364380,290.833801 1353.979004,290.833801 1359.753540,290.833801 
	C1359.753540,286.157959 1359.753540,281.762695 1359.753540,276.914612 
	C1353.781616,276.914612 1348.040649,276.914612 1341.933716,276.914612 
	C1341.933716,269.697723 1341.933716,262.928314 1341.933716,255.503204 
	C1335.683960,257.185608 1329.958374,258.726898 1323.858887,260.368835 
	C1323.858887,265.879456 1323.858887,271.303864 1323.858887,277.000000 
	C1321.467896,277.000000 1319.496826,277.000000 1316.566895,277.000000 
M774.000000,306.503357 
	C774.000000,316.169525 773.942627,325.836151 774.019409,335.501709 
	C774.074585,342.447144 779.472229,351.172791 785.103210,351.795471 
	C792.009399,352.559174 799.067505,352.117157 806.047485,351.859924 
	C807.065857,351.822418 808.760559,349.987030 808.861877,348.867676 
	C809.212341,344.995605 808.996887,341.072296 808.996887,336.717560 
	C807.255493,337.459717 806.241272,337.920532 805.206177,338.328369 
	C799.385193,340.621918 792.346008,338.046600 792.177185,332.848633 
	C791.727905,319.013550 792.024536,305.154236 792.024536,290.838867 
	C797.297791,290.838867 803.037109,290.838867 808.661316,290.838867 
	C808.661316,285.975372 808.661316,281.576691 808.661316,276.727356 
	C802.586609,276.727356 796.845276,276.727356 790.890137,276.727356 
	C790.890137,269.629120 790.890137,262.989960 790.890137,255.549500 
	C784.997314,257.221558 779.528625,258.773285 773.873352,260.377930 
	C773.873352,266.002472 773.873352,271.287720 773.873352,277.016357 
	C769.856628,277.016357 766.108643,277.016357 762.263733,277.016357 
	C762.263733,281.876160 762.263733,286.275757 762.263733,291.127380 
	C766.257874,291.127380 770.005432,291.127380 774.000000,291.127380 
	C774.000000,296.222565 774.000000,300.863739 774.000000,306.503357 
M384.658936,344.952667 
	C397.268219,354.975647 411.405731,354.685699 425.962830,350.875580 
	C427.794434,350.396179 430.590607,348.876801 430.748444,347.573822 
	C431.326111,342.804810 430.977112,337.923584 430.977112,332.491699 
	C416.115173,343.220184 403.601196,338.984253 397.619415,333.028381 
	C389.020813,324.467010 388.543701,308.228119 396.576508,298.026337 
	C400.690674,292.801178 406.504547,289.606964 413.127716,290.190247 
	C419.202667,290.725220 425.136627,292.861572 430.999725,294.260651 
	C430.999725,290.867920 431.244293,286.359283 430.855438,281.905975 
	C430.733643,280.511383 429.157654,278.528992 427.817657,278.070160 
	C418.254852,274.795563 408.477783,274.950806 398.852203,277.658813 
	C369.428101,285.936829 365.495178,326.704529 384.658936,344.952667 
M1264.000000,313.500000 
	C1264.000000,326.244080 1264.000000,338.988129 1264.000000,351.689514 
	C1270.315796,351.689514 1276.040771,351.689514 1282.000000,351.689514 
	C1282.000000,348.573547 1281.937500,345.764374 1282.010864,342.958771 
	C1282.317871,331.231750 1281.475586,319.316711 1283.301636,307.827728 
	C1285.545044,293.713379 1295.792969,288.959808 1308.000000,294.020294 
	C1308.000000,290.712830 1308.000000,287.853760 1308.000000,284.994690 
	C1308.000000,275.819672 1305.000610,273.608276 1295.973267,276.638092 
	C1293.314575,277.530426 1290.808472,279.238373 1288.606323,281.031647 
	C1286.298218,282.911316 1284.439575,285.342682 1281.834717,288.118805 
	C1281.834717,284.026367 1281.834717,280.637451 1281.834717,277.313049 
	C1275.679077,277.313049 1269.953857,277.313049 1264.000000,277.313049 
	C1264.000000,289.249756 1264.000000,300.874878 1264.000000,313.500000 
M454.430664,277.000000 
	C450.678741,277.000000 446.926849,277.000000 443.319122,277.000000 
	C443.319122,302.375061 443.319122,327.076660 443.319122,351.663055 
	C449.370575,351.663055 455.098236,351.663055 461.000000,351.663055 
	C461.000000,338.196503 460.674072,325.055145 461.120361,311.940002 
	C461.394836,303.875458 463.994019,296.053406 472.417358,293.154602 
	C476.642212,291.700653 481.780579,292.901093 486.731995,292.901093 
	C486.731995,288.224792 486.731995,282.677460 486.731995,277.298492 
	C475.616150,273.596558 467.626465,277.884979 460.753235,288.158264 
	C460.753235,283.311218 460.753235,280.250580 460.753235,277.000000 
	C458.692871,277.000000 457.044373,277.000000 454.430664,277.000000 
M986.000000,286.535767 
	C986.000000,308.261780 986.000000,329.987762 986.000000,351.696808 
	C991.967041,351.696808 997.357605,351.696808 1003.000000,351.696808 
	C1003.000000,348.424377 1002.932068,345.450928 1003.012085,342.481445 
	C1003.314575,331.252747 1003.066101,319.967102 1004.150391,308.812317 
	C1005.479492,295.137421 1015.571716,289.292847 1028.995239,293.945374 
	C1028.995239,288.854584 1029.145142,283.921295 1028.871216,279.011719 
	C1028.814941,278.004211 1027.252197,276.353882 1026.249390,276.245575 
	C1020.302734,275.603455 1014.383423,275.590332 1009.895508,280.601105 
	C1007.781799,282.961060 1005.697388,285.347290 1002.840210,288.581268 
	C1002.840210,284.023926 1002.840210,280.635925 1002.840210,277.312653 
	C997.014160,277.312653 991.623169,277.312653 986.000000,277.312653 
	C986.000000,280.264648 986.000000,282.905975 986.000000,286.535767 
M343.779236,277.094025 
	C343.519623,278.162048 343.035461,279.229706 343.033508,280.298187 
	C342.991547,303.429077 342.998535,326.560059 343.025757,349.691010 
	C343.026642,350.446533 343.338593,351.201660 343.464905,351.773010 
	C349.381958,351.773010 354.990601,351.773010 360.785217,351.773010 
	C360.785217,326.842072 360.785217,302.138245 360.785217,277.010193 
	C355.300751,277.010193 350.019562,277.010193 343.779236,277.094025 
M350.748627,243.000290 
	C343.687012,244.307663 340.908661,248.487701 342.005890,256.153717 
	C342.526825,259.793335 347.890991,263.261780 352.592010,262.998657 
	C358.190399,262.685303 363.193634,257.717957 362.929047,252.735733 
	C362.637146,247.239624 357.860229,243.140869 350.748627,243.000290 
z"/>
<path fill="#8661C5" opacity="1.000000" stroke="none" 
	d="
M1832.044067,472.000000 
	C1848.164795,472.000000 1863.790771,472.000000 1879.706421,472.000000 
	C1879.706421,554.688354 1879.706421,636.939087 1879.706421,719.595093 
	C1861.078979,719.595093 1842.368652,719.595093 1823.067871,719.595093 
	C1823.067871,686.591553 1823.067871,653.545715 1823.067871,620.253052 
	C1789.224609,620.253052 1755.967896,620.253052 1722.123047,620.253052 
	C1722.123047,653.352661 1722.123047,686.398438 1722.123047,719.719421 
	C1702.946045,719.719421 1684.353760,719.719421 1665.380127,719.719421 
	C1665.380127,637.367004 1665.380127,554.998413 1665.380127,472.314636 
	C1683.984497,472.314636 1702.577515,472.314636 1721.759277,472.314636 
	C1721.759277,504.900208 1721.759277,537.612793 1721.759277,570.660645 
	C1755.720215,570.660645 1789.094849,570.660645 1822.881104,570.660645 
	C1822.881104,537.916138 1822.881104,505.323792 1822.881104,472.000000 
	C1826.028931,472.000000 1828.789062,472.000000 1832.044067,472.000000 
z"/>
<path fill="#8661C5" opacity="1.000000" stroke="none" 
	d="
M2085.000000,644.000000 
	C2085.000000,581.877014 2085.000000,520.254089 2085.000000,458.315979 
	C2103.314941,458.315979 2121.241455,458.315979 2139.885986,458.315979 
	C2139.885986,494.337067 2139.885986,530.490234 2139.885986,566.643433 
	C2140.286621,566.790283 2140.687012,566.937073 2141.087646,567.083923 
	C2142.380371,565.569885 2143.694580,564.073547 2144.962646,562.539062 
	C2156.990723,547.982849 2172.290527,540.419617 2191.254639,538.781494 
	C2208.508301,537.291138 2224.391602,540.188599 2238.518799,550.006592 
	C2250.456787,558.303101 2258.324951,569.964905 2263.089600,583.781982 
	C2266.763916,594.436646 2269.069580,605.262573 2269.008789,616.562317 
	C2268.965820,624.606262 2269.485840,632.685547 2268.911133,640.688477 
	C2267.005127,667.228271 2258.158691,690.913757 2237.566895,708.686951 
	C2226.695068,718.070923 2213.541504,722.679688 2198.979980,724.213440 
	C2185.111816,725.674194 2171.891113,724.398071 2159.855225,717.718018 
	C2152.681396,713.736389 2146.702881,707.601135 2140.186279,702.433411 
	C2140.186279,707.517456 2140.186279,713.486572 2140.186279,719.718689 
	C2121.614746,719.718689 2103.688965,719.718689 2085.000000,719.718689 
	C2085.000000,694.662476 2085.000000,669.581238 2085.000000,644.000000 
M2157.556152,586.957825 
	C2146.334229,594.706665 2140.811035,605.728210 2140.102051,619.029724 
	C2139.580322,628.822083 2139.468994,638.700562 2140.131104,648.475891 
	C2141.003906,661.363037 2146.965576,671.971252 2158.564697,677.999939 
	C2176.839355,687.498108 2197.560059,680.316589 2206.343750,660.878174 
	C2213.674072,644.655762 2214.913818,627.228821 2210.797363,609.821838 
	C2207.703857,596.740051 2200.891602,586.404114 2186.969238,582.451111 
	C2176.726318,579.542847 2167.182861,581.256714 2157.556152,586.957825 
z"/>
<path fill="#8661C5" opacity="1.000000" stroke="none" 
	d="
M1070.000000,530.000000 
	C1070.000000,505.872345 1070.000000,482.244690 1070.000000,458.309662 
	C1088.327393,458.309662 1106.253296,458.309662 1124.590332,458.309662 
	C1124.590332,545.237610 1124.590332,632.270325 1124.590332,719.651855 
	C1106.630493,719.651855 1088.587646,719.651855 1070.145996,719.651855 
	C1070.145996,712.278870 1070.145996,705.026001 1070.145996,699.384644 
	C1065.909424,703.028870 1061.078369,707.296814 1056.126709,711.419983 
	C1046.584839,719.365051 1035.391846,722.678040 1023.173096,724.163147 
	C1008.298523,725.971008 994.371826,723.594360 981.159668,716.988037 
	C961.610901,707.213257 950.718811,690.535278 945.032959,670.047485 
	C940.926819,655.251831 940.151489,640.028992 941.129700,624.847900 
	C942.323181,606.326294 946.629639,588.402588 957.160950,572.795349 
	C970.534729,552.975464 988.759705,540.976379 1013.278259,538.809509 
	C1026.059448,537.679932 1038.017822,539.000061 1049.845947,543.823853 
	C1057.069092,546.769653 1061.883789,552.290894 1066.911987,557.728149 
	C1067.602783,558.475159 1068.260742,559.252563 1070.000000,561.224487 
	C1070.000000,549.961060 1070.000000,540.230530 1070.000000,530.000000 
M1068.919067,606.843262 
	C1068.614502,606.082214 1068.275513,605.332825 1068.010376,604.558289 
	C1063.210815,590.539246 1050.049683,580.999084 1035.496094,581.000000 
	C1020.411743,581.000916 1006.927063,590.780029 1002.026367,605.608521 
	C998.189575,617.218018 996.375854,629.014893 997.837769,641.400818 
	C998.970886,651.000977 1000.949402,659.905273 1006.432495,668.137878 
	C1018.150818,685.732361 1046.731567,687.390198 1060.924927,668.146240 
	C1067.012329,659.892761 1070.314087,650.263611 1070.630371,640.219238 
	C1070.971313,629.394592 1069.626587,618.516907 1068.919067,606.843262 
z"/>
<path fill="#8661C5" opacity="1.000000" stroke="none" 
	d="
M542.728882,577.392334 
	C553.795654,596.040649 557.243164,616.094666 555.921448,637.009399 
	C554.408691,660.948059 547.352905,682.831238 529.494751,699.935608 
	C516.196350,712.672791 500.064026,720.027832 482.007660,722.878540 
	C473.736328,724.184326 465.266510,725.040039 456.913025,724.862427 
	C434.697052,724.389832 413.429779,719.742920 395.557526,705.679382 
	C381.181824,694.367432 371.539398,679.479919 367.320282,661.534851 
	C362.017395,638.980225 362.045380,616.458679 369.915253,594.437317 
	C377.724579,572.585388 392.421204,556.993225 413.756226,547.579712 
	C425.940704,542.203674 438.618103,539.940308 451.840485,538.790955 
	C468.526550,537.340576 484.681885,539.114380 500.384796,544.295288 
	C518.185852,550.168457 531.956421,561.683411 542.728882,577.392334 
M445.950745,679.929260 
	C448.669220,680.479431 451.365631,681.202515 454.109650,681.552063 
	C474.100281,684.098450 489.744751,675.802856 495.926849,656.188660 
	C500.324646,642.235535 500.192566,627.811157 497.886200,613.564575 
	C495.285034,597.497131 486.617096,584.833740 467.975372,581.706848 
	C446.819092,578.158203 427.919098,590.260803 422.985596,610.435974 
	C420.432251,620.877747 419.533813,631.287781 420.808411,642.156860 
	C422.780304,658.972473 428.681091,672.594055 445.950745,679.929260 
z"/>
<path fill="#8661C5" opacity="1.000000" stroke="none" 
	d="
M335.000000,472.000000 
	C342.796997,472.000000 350.093994,472.000000 357.693237,472.000000 
	C357.693237,487.332336 357.693237,502.257690 357.693237,517.769043 
	C329.089600,517.769043 300.378540,517.769043 271.336121,517.769043 
	C271.336121,538.059326 271.336121,557.767151 271.336121,577.884766 
	C297.754639,577.884766 324.012573,577.884766 350.633728,577.884766 
	C350.633728,593.331482 350.633728,608.374023 350.633728,623.827637 
	C324.303162,623.827637 298.045258,623.827637 271.206421,623.827637 
	C271.206421,655.936462 271.206421,687.645874 271.206421,719.675659 
	C251.916489,719.675659 233.208466,719.675659 214.249649,719.675659 
	C214.249649,637.231079 214.249649,554.987915 214.249649,472.000000 
	C254.350983,472.000000 294.425476,472.000000 335.000000,472.000000 
z"/>
<path fill="#8661C5" opacity="1.000000" stroke="none" 
	d="
M769.015625,720.000000 
	C764.885925,720.000000 761.252747,720.000000 757.312317,720.000000 
	C757.312317,660.899902 757.312317,602.200439 757.312317,543.250366 
	C775.447144,543.250366 793.370972,543.250366 811.807495,543.250366 
	C811.807495,551.372009 811.807495,559.446350 811.807495,568.715454 
	C813.452576,567.357544 814.405518,566.870056 814.930420,566.093262 
	C824.843811,551.423950 838.626648,542.110901 855.895081,539.323181 
	C873.396790,536.497864 890.656982,537.813293 905.764343,548.927856 
	C916.241028,556.635559 921.895691,567.547424 924.784119,579.678162 
	C926.821716,588.235474 927.781250,597.229553 927.862183,606.041138 
	C928.192627,642.027283 928.000000,678.018188 928.000000,714.007385 
	C928.000000,715.804810 928.000000,717.602234 928.000000,719.697632 
	C909.658875,719.697632 891.734314,719.697632 873.000000,719.697632 
	C873.000000,717.880859 873.000000,715.968140 873.000000,714.055420 
	C873.000000,681.731812 873.153809,649.406982 872.897888,617.085388 
	C872.829102,608.395081 870.998352,599.959473 866.152832,592.296936 
	C857.258545,578.231689 836.543274,578.126465 825.435974,588.037537 
	C815.910889,596.536682 812.190735,607.588074 812.087952,619.803589 
	C811.824524,651.125305 812.000000,682.450684 812.000000,713.774597 
	C812.000000,715.593628 812.000000,717.412659 812.000000,720.000000 
	C797.675842,720.000000 783.593994,720.000000 769.015625,720.000000 
z"/>
<path fill="#8661C5" opacity="1.000000" stroke="none" 
	d="
M662.359009,680.809753 
	C679.315369,673.994263 684.814087,660.408508 684.933044,643.976440 
	C685.162415,612.314514 685.000000,580.649780 685.000000,548.986206 
	C685.000000,547.189087 685.000000,545.391968 685.000000,543.299683 
	C703.349121,543.299683 721.276184,543.299683 739.602417,543.299683 
	C739.602417,601.936768 739.602417,660.645020 739.602417,719.677124 
	C721.698242,719.677124 703.770813,719.677124 685.253052,719.677124 
	C685.253052,711.814392 685.253052,703.778931 685.253052,694.188110 
	C681.902466,697.984253 679.515747,700.573853 677.255127,703.269226 
	C666.972046,715.529297 654.008240,722.395874 637.978149,724.126526 
	C624.567505,725.574219 611.903015,723.896667 599.647156,718.302734 
	C587.327271,712.679565 579.872253,702.775024 575.063049,690.625732 
	C570.663940,679.512878 568.878967,667.922302 568.937622,655.919495 
	C569.111877,620.257141 569.000000,584.593445 569.000000,548.930237 
	C569.000000,547.138123 569.000000,545.346069 569.000000,543.279907 
	C587.389526,543.279907 605.316223,543.279907 624.000000,543.279907 
	C624.000000,545.179626 624.000000,547.099915 624.000000,549.020264 
	C624.000000,582.683655 623.915771,616.347412 624.065247,650.010132 
	C624.098389,657.473511 626.451477,664.362976 630.260498,670.952148 
	C635.645081,680.266907 649.216003,683.006531 657.627014,681.688599 
	C659.078369,681.461182 660.522705,681.188965 662.359009,680.809753 
z"/>
<path fill="#8661C5" opacity="1.000000" stroke="none" 
	d="
M2068.000000,649.000000 
	C2068.000000,672.793945 2068.000000,696.087952 2068.000000,719.689819 
	C2049.674072,719.689819 2031.748413,719.689819 2013.232788,719.689819 
	C2013.232788,711.797363 2013.232788,703.765198 2013.232788,694.429932 
	C2010.083862,697.938232 2007.722778,700.345825 2005.613525,702.956909 
	C1995.500610,715.476196 1982.403076,722.076599 1966.469604,724.134277 
	C1954.058594,725.737000 1942.124390,724.319580 1930.754028,719.792053 
	C1913.408936,712.885498 1904.189941,698.747681 1900.177246,681.244507 
	C1898.209595,672.661804 1897.220581,663.682678 1897.137573,654.870239 
	C1896.804688,619.548340 1897.000000,584.221558 1897.000000,548.896545 
	C1897.000000,547.102539 1897.000000,545.308472 1897.000000,543.268311 
	C1915.411499,543.268311 1933.336304,543.268311 1952.000000,543.268311 
	C1952.000000,545.200012 1952.000000,547.122559 1952.000000,549.045044 
	C1952.000000,582.370483 1951.893188,615.696594 1952.079468,649.020996 
	C1952.122803,656.766357 1954.257324,664.031128 1958.226318,670.984375 
	C1963.100464,679.522888 1977.437622,683.171021 1985.641846,681.699951 
	C2004.837280,678.257996 2012.719238,662.397888 2012.893921,646.394287 
	C2013.248779,613.905884 2013.000000,581.410767 2013.000000,548.918457 
	C2013.000000,547.127625 2013.000000,545.336792 2013.000000,543.276001 
	C2031.395630,543.276001 2049.320557,543.276001 2068.000000,543.276001 
	C2068.000000,578.344849 2068.000000,613.422424 2068.000000,649.000000 
z"/>
<path fill="#8661C5" opacity="1.000000" stroke="none" 
	d="
M1138.009644,645.682129 
	C1137.591797,627.669556 1138.197876,610.304138 1144.681885,593.608032 
	C1153.614746,570.606689 1169.353027,554.469360 1192.074951,544.863525 
	C1203.815796,539.900085 1216.151733,537.780823 1228.603394,538.204468 
	C1246.261963,538.805237 1263.390991,541.886536 1278.058594,553.362488 
	C1292.176270,564.408325 1300.587891,578.675842 1305.030273,595.757202 
	C1309.444824,612.731323 1307.562744,629.986389 1308.036743,647.850708 
	C1269.640625,647.850708 1231.455078,647.850708 1193.207031,647.850708 
	C1195.014038,666.099060 1203.517212,678.704285 1222.928955,682.909485 
	C1246.349731,687.983154 1268.615601,684.354980 1289.419434,672.282898 
	C1290.251221,671.800232 1291.195190,671.510925 1292.554565,670.932678 
	C1292.721558,672.382263 1292.978271,673.589844 1292.981689,674.798218 
	C1293.013062,685.626953 1292.804321,696.461548 1293.113525,707.281555 
	C1293.212524,710.744141 1291.900269,712.244690 1289.045288,713.515442 
	C1277.731445,718.551025 1265.942383,721.800293 1253.631226,722.963562 
	C1244.443237,723.831726 1235.195557,725.125122 1226.018677,724.834167 
	C1207.339233,724.242065 1189.059692,721.159546 1173.074097,710.476135 
	C1154.562134,698.104248 1144.377319,680.247192 1140.031494,658.765320 
	C1139.188232,654.596252 1138.679688,650.359375 1138.009644,645.682129 
M1217.495117,577.848328 
	C1205.485229,581.334473 1192.854248,599.517761 1193.406616,612.578125 
	C1214.539185,612.578125 1235.671143,612.578125 1256.666626,612.578125 
	C1256.422729,609.400879 1256.426025,606.601624 1255.956665,603.883972 
	C1254.726440,596.762512 1253.295532,589.578430 1247.769165,584.343933 
	C1239.320679,576.341675 1229.323608,574.216003 1217.495117,577.848328 
z"/>
<path fill="#8661C5" opacity="1.000000" stroke="none" 
	d="
M1541.022461,539.000000 
	C1552.931641,540.800903 1564.369751,542.601746 1575.813721,544.403503 
	C1575.813721,559.755554 1575.813721,574.002319 1575.813721,588.424316 
	C1562.954834,581.854370 1549.811157,577.508118 1535.387085,576.806946 
	C1527.355103,576.416504 1519.794434,577.167603 1512.503784,580.252808 
	C1503.386475,584.110901 1502.537964,595.285889 1509.451660,599.759094 
	C1515.020508,603.362061 1521.014771,606.621094 1527.248291,608.818542 
	C1540.874878,613.622131 1554.666992,618.003113 1566.829346,626.013672 
	C1580.290283,634.879578 1586.701782,647.492371 1587.141968,663.768433 
	C1587.600830,680.730530 1582.350220,694.935791 1569.454712,705.937866 
	C1559.382324,714.531494 1547.397705,719.672974 1534.462524,721.811462 
	C1523.776733,723.578064 1512.848022,724.973328 1502.060547,724.767578 
	C1486.165161,724.464294 1470.348999,722.437500 1455.107666,717.201111 
	C1452.079102,716.160645 1450.886108,715.072510 1450.927979,711.807678 
	C1451.099976,698.347046 1451.000000,684.882935 1451.000000,670.831543 
	C1458.345581,674.213501 1464.899658,678.196045 1472.010376,680.274353 
	C1482.164429,683.242249 1492.656860,685.967590 1503.137085,686.598022 
	C1510.690430,687.052429 1518.610840,684.432129 1526.078247,682.210815 
	C1530.895874,680.777710 1533.702881,676.315369 1533.910278,671.168457 
	C1534.167114,664.795410 1529.536377,661.241089 1524.572632,659.046692 
	C1516.671997,655.554016 1508.212158,653.331360 1500.293945,649.872681 
	C1489.815796,645.295776 1479.065063,640.939636 1469.464478,634.858032 
	C1457.388916,627.208679 1451.170654,615.333557 1451.007446,600.725952 
	C1450.906250,591.658264 1450.526123,582.594543 1454.455444,573.985352 
	C1461.173218,559.266602 1473.033569,550.515015 1487.672974,545.017090 
	C1497.717285,541.244873 1508.093872,538.909485 1518.917603,538.988159 
	C1526.128540,539.040527 1533.339966,538.999329 1541.022461,539.000000 
z"/>
<path fill="#8661C5" opacity="1.000000" stroke="none" 
	d="
M1378.000000,677.000000 
	C1378.000000,691.457825 1378.000000,705.415710 1378.000000,719.684937 
	C1359.691284,719.684937 1341.772949,719.684937 1323.426514,719.684937 
	C1323.426514,661.139404 1323.426514,602.458984 1323.426514,543.388794 
	C1341.279541,543.388794 1359.316406,543.388794 1377.746216,543.388794 
	C1377.746216,552.627319 1377.746216,561.889587 1377.746216,571.151855 
	C1378.085571,571.575439 1378.424927,571.999023 1378.764282,572.422607 
	C1390.567017,545.644409 1410.552368,535.465210 1438.740845,541.348511 
	C1438.740845,558.466370 1438.740845,575.532349 1438.740845,591.468933 
	C1431.215576,590.309082 1423.760742,588.755554 1416.227173,588.079956 
	C1398.526489,586.492737 1386.848755,597.958374 1382.208618,612.423096 
	C1379.789062,619.965637 1378.552856,628.102783 1378.175903,636.037598 
	C1377.536377,649.497437 1378.000000,663.009766 1378.000000,677.000000 
z"/>
<path fill="#3B2E58" opacity="1.000000" stroke="none" 
	d="
M317.945648,248.000000 
	C320.748627,248.000000 323.060852,248.000000 325.685608,248.000000 
	C325.685608,282.617554 325.685608,317.001129 325.685608,351.692810 
	C320.028076,351.692810 314.298431,351.692810 308.169800,351.692810 
	C308.169800,325.989349 308.169800,300.272034 308.169800,274.554718 
	C307.797455,274.446899 307.425110,274.339111 307.052765,274.231293 
	C304.707642,279.903900 302.288544,285.547241 300.030975,291.254456 
	C292.315369,310.759399 284.688080,330.299438 276.886383,349.769653 
	C276.481689,350.779663 274.829773,351.790009 273.662994,351.916107 
	C263.581512,353.005859 263.779327,352.828094 259.918060,343.058624 
	C252.087082,323.245514 243.975052,303.543427 235.965530,283.800964 
	C234.673676,280.616730 233.312881,277.460419 231.005341,274.545990 
	C231.005341,300.217438 231.005341,325.888916 231.005341,351.777893 
	C225.309402,351.777893 220.029602,351.777893 214.373810,351.777893 
	C214.373810,317.504242 214.373810,283.119629 214.373810,248.367081 
	C222.515762,248.367081 230.917496,248.367081 239.599579,248.367081 
	C249.688110,273.994537 259.878845,299.881653 270.130890,325.924500 
	C280.655426,299.793304 291.042572,274.003174 301.515533,248.000000 
	C306.817749,248.000000 312.136322,248.000000 317.945648,248.000000 
z"/>
<path fill="#3B2E58" opacity="1.000000" stroke="none" 
	d="
M1448.000000,301.000000 
	C1448.000000,292.859711 1448.000000,285.219452 1448.000000,277.291016 
	C1453.676147,277.291016 1459.074585,277.291016 1464.933838,277.291016 
	C1464.933838,280.690674 1464.933838,284.075989 1464.933838,287.215607 
	C1469.743896,283.891327 1473.922607,279.279266 1479.014404,277.790497 
	C1498.375854,272.129578 1513.214722,277.771271 1518.576050,298.471375 
	C1521.557739,309.984436 1520.660889,321.678253 1516.496826,333.209625 
	C1508.761353,354.631500 1479.651489,359.927094 1466.578369,344.122070 
	C1466.315918,343.804871 1465.871338,343.638336 1465.111816,343.138123 
	C1465.111816,357.147461 1465.111816,370.730988 1465.111816,384.656067 
	C1459.437866,384.656067 1454.038574,384.656067 1448.000000,384.656067 
	C1448.000000,357.015411 1448.000000,329.257721 1448.000000,301.000000 
M1471.505737,294.996338 
	C1463.365723,306.224182 1462.255249,322.682617 1469.177979,332.458191 
	C1475.397583,341.240723 1490.105225,341.394073 1496.427734,332.322815 
	C1501.776489,324.648438 1503.057251,316.146851 1501.678223,307.600159 
	C1500.862305,302.543396 1498.000244,296.924255 1494.292603,293.433289 
	C1488.546143,288.022491 1479.915039,288.282379 1471.505737,294.996338 
z"/>
<path fill="#3B2E58" opacity="1.000000" stroke="none" 
	d="
M1082.015015,335.038818 
	C1092.029175,338.841675 1101.743896,339.859985 1111.281860,335.167084 
	C1118.827881,331.454224 1120.421021,323.240326 1114.613647,317.307404 
	C1111.718140,314.349182 1107.889648,312.211212 1104.258789,310.085144 
	C1096.582031,305.589905 1088.469971,301.783691 1081.057739,296.902985 
	C1068.047729,288.336151 1065.680420,268.841370 1076.719360,257.000580 
	C1082.117188,251.210678 1089.612549,248.360550 1097.394897,247.081512 
	C1109.844482,245.035431 1119.899902,245.603271 1131.855957,249.511810 
	C1131.855957,255.429977 1131.855957,261.397522 1131.855957,266.397614 
	C1125.161255,264.641418 1118.297974,261.736755 1111.286499,261.318939 
	C1104.563232,260.918304 1097.466919,261.776215 1091.912476,267.411316 
	C1086.662598,272.737305 1089.212524,280.749908 1093.153198,283.438263 
	C1097.515991,286.414703 1102.462158,288.533936 1107.144287,291.045074 
	C1116.908081,296.281830 1127.376343,300.873230 1133.245239,310.909302 
	C1140.973999,324.126007 1137.086426,342.595398 1120.994751,349.113708 
	C1105.600586,355.349518 1090.267822,353.698242 1074.849976,349.883057 
	C1071.567017,349.070679 1069.250854,347.281738 1069.864380,342.896332 
	C1070.481079,338.489319 1070.000000,333.928650 1070.000000,329.154205 
	C1074.032837,331.185883 1077.822510,333.095062 1082.015015,335.038818 
z"/>
<path fill="#3B2E58" opacity="1.000000" stroke="none" 
	d="
M679.163635,352.382721 
	C667.732361,353.085266 656.586060,354.522034 646.622253,347.314606 
	C638.202332,341.223907 633.636780,333.331757 631.856445,323.111542 
	C630.041016,312.690308 631.417419,302.894684 636.147095,293.775269 
	C642.086548,282.323181 652.184387,276.526245 664.970825,276.111389 
	C671.507446,275.899323 678.359070,275.814636 684.580811,277.486572 
	C697.183777,280.873413 704.216125,290.194550 706.822937,302.720032 
	C709.213684,314.207458 708.504211,325.485931 702.536621,335.917114 
	C697.422974,344.855743 689.834290,350.481171 679.163635,352.382721 
M685.586182,330.946808 
	C689.958496,323.256592 690.643677,315.106384 689.033203,306.514679 
	C687.586121,298.794312 681.758057,291.707886 674.364319,290.236450 
	C667.401367,288.850739 658.057861,291.097809 653.527832,298.787964 
	C647.309509,309.344330 647.366150,320.101074 653.232361,330.160156 
	C660.727966,343.013367 679.852295,341.158234 685.586182,330.946808 
z"/>
<path fill="#3B2E58" opacity="1.000000" stroke="none" 
	d="
M957.591919,280.225586 
	C967.658325,286.245941 972.513733,295.557190 973.733643,306.149750 
	C975.026794,317.377777 974.186096,328.621368 967.161743,338.599182 
	C961.519043,346.614380 953.712769,351.162750 944.599609,352.523254 
	C933.701294,354.150299 922.680725,353.835266 912.803467,347.351868 
	C903.979187,341.559723 899.323669,332.973328 898.275879,323.072937 
	C897.497131,315.714478 898.410950,307.921692 899.982971,300.626709 
	C902.657227,288.216980 911.266602,280.508240 923.263794,277.491455 
	C934.671875,274.622772 946.277771,274.572235 957.591919,280.225586 
M943.834106,337.670715 
	C947.153503,334.287415 951.678589,331.455139 953.531006,327.401489 
	C956.958435,319.901367 956.807861,311.811493 954.355103,303.601044 
	C951.939697,295.515839 946.706665,291.158356 938.919800,290.126068 
	C930.320557,288.985992 923.390991,292.091797 918.921021,300.099854 
	C915.243408,306.688477 915.196228,313.872009 916.197449,320.694916 
	C918.249268,334.676788 928.553101,341.960449 943.834106,337.670715 
z"/>
<path fill="#3B2E58" opacity="1.000000" stroke="none" 
	d="
M554.772095,286.274292 
	C560.462952,291.935455 563.057129,298.932739 563.776489,306.128235 
	C564.939087,317.756195 564.483398,329.497284 556.848694,339.373749 
	C550.344482,347.787811 541.615295,352.552521 530.913269,352.936066 
	C522.761292,353.228241 514.672668,353.360870 506.883911,349.563202 
	C495.750000,344.134399 489.765533,334.915375 488.275970,323.396301 
	C487.030853,313.767761 487.121552,303.802979 492.030243,294.587769 
	C497.877228,283.611084 507.186920,277.470764 519.060852,276.221924 
	C528.564514,275.222412 538.528442,274.691315 547.305176,280.133423 
	C549.920654,281.755157 552.127258,284.036102 554.772095,286.274292 
M506.000000,318.234894 
	C506.342896,320.472168 506.498962,322.757812 507.063477,324.937683 
	C508.791901,331.612244 516.374695,338.478973 522.937561,338.941864 
	C531.752441,339.563629 537.938660,338.645874 543.120789,328.676208 
	C547.265991,320.701447 546.635132,312.451050 544.831238,304.341736 
	C543.213379,297.068512 538.140015,292.029053 530.841492,290.103760 
	C523.341736,288.125336 515.002014,291.892670 510.560547,297.745667 
	C506.032227,303.713165 505.840515,310.398712 506.000000,318.234894 
z"/>
<path fill="#3B2E58" opacity="1.000000" stroke="none" 
	d="
M1253.000000,316.000610 
	C1253.000000,328.134430 1253.000000,339.768402 1253.000000,351.700256 
	C1247.344971,351.700256 1241.949219,351.700256 1235.955322,351.700256 
	C1235.955322,348.875214 1235.955322,346.019348 1235.955322,341.973206 
	C1227.376587,352.700592 1217.165894,354.938751 1205.575439,352.094147 
	C1195.872437,349.712769 1190.303833,342.896393 1190.031006,333.073120 
	C1189.577759,316.760834 1198.162354,309.329285 1213.057495,307.009583 
	C1220.458618,305.856995 1227.875610,304.807190 1235.330933,303.704163 
	C1236.780029,296.247101 1231.043701,289.359253 1223.001221,288.992523 
	C1213.403687,288.554871 1205.405884,292.595978 1197.414795,298.487671 
	C1197.414795,292.869873 1197.414795,287.856689 1197.414795,282.415680 
	C1209.606934,274.908051 1223.328613,274.381866 1237.151367,277.248962 
	C1246.714966,279.232605 1252.782593,289.057465 1252.985107,300.512573 
	C1253.073486,305.507141 1253.000000,310.504608 1253.000000,316.000610 
M1213.165771,338.671570 
	C1226.316040,344.019226 1238.677368,330.618835 1235.423706,315.619568 
	C1228.364502,316.859467 1221.183838,317.820038 1214.163940,319.466187 
	C1209.933228,320.458252 1207.366211,323.820831 1207.066650,328.235931 
	C1206.773071,332.561951 1208.114258,336.298859 1213.165771,338.671570 
z"/>
<path fill="#3B2E58" opacity="1.000000" stroke="none" 
	d="
M1403.300781,352.865417 
	C1399.710327,352.983032 1396.526978,352.772766 1393.383911,353.038361 
	C1380.669922,354.112701 1370.491211,342.993774 1370.143311,331.497711 
	C1369.598633,313.488525 1369.999023,295.450775 1369.999023,277.209625 
	C1375.050415,277.209625 1380.662842,277.209625 1386.748657,277.209625 
	C1386.828369,278.531219 1386.987061,279.953583 1386.988892,281.376160 
	C1387.007568,295.201904 1386.675659,309.039948 1387.200684,322.845734 
	C1387.355103,326.902802 1389.026367,331.588562 1391.562012,334.725433 
	C1396.807129,341.214233 1408.067993,340.818176 1412.791870,333.951935 
	C1415.497559,330.019379 1417.555664,324.851135 1417.769287,320.142303 
	C1418.409912,306.022003 1418.000000,291.854095 1418.000000,277.352600 
	C1423.873169,277.352600 1429.606567,277.352600 1436.000000,277.352600 
	C1436.000000,289.615936 1436.000000,302.034851 1436.000000,314.453766 
	C1436.000000,326.760406 1436.000000,339.067047 1436.000000,351.686157 
	C1430.040649,351.686157 1424.308350,351.686157 1418.138672,351.686157 
	C1418.138672,349.020355 1418.138672,346.301941 1418.138672,343.908569 
	C1413.210327,346.934113 1408.468506,349.845215 1403.300781,352.865417 
z"/>
<path fill="#3B2E58" opacity="1.000000" stroke="none" 
	d="
M861.000000,267.038696 
	C859.668518,254.479706 866.618896,245.723724 877.481506,241.856689 
	C883.700256,239.642868 889.940735,239.663635 896.186951,241.208847 
	C897.034729,241.418579 897.842041,243.524689 897.917786,244.797348 
	C898.144592,248.610931 897.999390,252.446640 897.999390,256.599121 
	C892.704651,254.854568 887.458679,253.352631 882.629272,256.973236 
	C878.434998,260.117706 877.582642,264.420502 878.182922,276.762390 
	C883.544189,276.762390 888.950989,276.762390 894.676025,276.762390 
	C894.676025,281.604279 894.676025,286.000732 894.676025,290.858612 
	C889.353088,290.858612 883.945129,290.858612 878.102783,290.858612 
	C878.102783,311.365662 878.102783,331.425201 878.102783,351.739868 
	C872.264282,351.739868 866.869141,351.739868 861.024841,351.739868 
	C861.024841,331.554443 861.024841,311.494507 861.024841,291.163086 
	C856.640198,291.163086 852.691895,291.163086 848.371826,291.163086 
	C848.371826,286.504150 848.371826,282.102936 848.371826,277.241760 
	C852.216370,277.241760 856.286438,277.241760 861.000000,277.241760 
	C861.000000,273.716797 861.000000,270.619232 861.000000,267.038696 
z"/>
<path fill="#3B2E58" opacity="1.000000" stroke="none" 
	d="
M739.994446,349.778870 
	C739.048462,350.839386 738.125488,351.881744 737.162415,351.920105 
	C732.682800,352.098511 728.192078,351.999084 723.264465,351.999084 
	C723.264465,331.797974 723.264465,311.742920 723.264465,291.235779 
	C718.775024,291.235779 714.706421,291.235779 710.320129,291.235779 
	C710.320129,286.394470 710.320129,281.998962 710.320129,277.141205 
	C714.314148,277.141205 718.391052,277.141205 723.000000,277.141205 
	C723.000000,272.602112 723.206604,268.482452 722.961487,264.389862 
	C722.201599,251.704285 731.574951,243.537643 742.513611,241.174240 
	C746.972534,240.210846 751.813477,241.091797 756.476318,240.969131 
	C759.481140,240.890060 760.103455,242.470764 760.028503,245.043167 
	C759.917053,248.864594 759.999634,252.691666 759.999634,256.579651 
	C745.470215,251.520660 738.229492,257.477509 740.381653,276.929810 
	C745.717285,276.929810 751.127136,276.929810 756.759888,276.929810 
	C756.759888,281.775604 756.759888,286.170258 756.759888,290.843964 
	C751.301819,290.843964 746.020813,290.843964 739.999023,290.843964 
	C739.999023,310.507507 739.999023,329.902863 739.994446,349.778870 
z"/>
<path fill="#3B2E58" opacity="1.000000" stroke="none" 
	d="
M618.387451,277.720764 
	C619.516357,278.721191 620.858887,279.469177 620.896851,280.278381 
	C621.106079,284.739868 620.996826,289.216278 620.996826,292.936615 
	C614.587891,291.600464 608.351501,290.299530 602.113953,289.004211 
	C601.954224,288.971039 601.781433,288.997345 601.614868,289.000397 
	C595.245544,289.116577 590.244507,292.415131 589.601379,296.923553 
	C589.067688,300.665680 592.346741,303.560822 598.573181,306.085724 
	C604.975891,308.682190 611.532349,311.291962 617.263916,315.051117 
	C624.404541,319.734467 626.503967,327.478088 624.647827,335.483826 
	C622.449524,344.965027 615.305054,350.193542 606.103638,351.887695 
	C594.739868,353.980042 583.305664,354.182678 572.201050,349.544342 
	C572.201050,344.162170 572.201050,338.732971 572.201050,333.474243 
	C577.285034,335.576813 582.099060,338.603088 587.258423,339.403442 
	C592.187500,340.168091 597.543213,338.953644 602.579956,337.949615 
	C605.389526,337.389557 607.018860,335.113983 607.109253,331.712891 
	C607.199280,328.330658 605.637085,326.318390 603.002930,325.056000 
	C597.907349,322.614014 592.703613,320.390808 587.498535,318.185944 
	C573.618286,312.306274 571.255859,305.759613 571.988098,294.677155 
	C572.488403,287.105347 580.614685,278.408447 590.654907,277.258850 
	C599.642578,276.229736 608.874512,277.333710 618.387451,277.720764 
z"/>
<path fill="#3B2E58" opacity="1.000000" stroke="none" 
	d="
M1560.808472,352.004578 
	C1549.105713,353.933563 1537.988281,353.925201 1527.284668,349.577240 
	C1527.284668,344.015137 1527.284668,338.622986 1527.284668,332.703003 
	C1534.343018,337.158508 1541.339600,340.439301 1549.431274,339.960449 
	C1552.173706,339.798157 1555.338379,339.901825 1557.494873,338.566986 
	C1559.825073,337.124542 1563.172729,333.283722 1562.612549,331.996552 
	C1561.124390,328.577209 1558.275269,325.104919 1555.051270,323.224060 
	C1548.834595,319.597321 1541.898560,317.230560 1535.421143,314.018066 
	C1524.912964,308.806488 1523.889404,290.140320 1535.058350,282.313751 
	C1547.913818,273.305389 1561.614502,275.452911 1575.725830,277.874512 
	C1575.725830,283.361938 1575.725830,288.558167 1575.725830,294.176880 
	C1567.854004,289.511108 1559.909668,287.426727 1551.273438,290.027710 
	C1547.709717,291.101044 1545.237549,293.283417 1545.019897,297.251953 
	C1544.819580,300.907684 1547.022461,302.672333 1550.145508,304.078644 
	C1557.495361,307.388306 1564.722900,310.970856 1571.984863,314.474060 
	C1583.038696,319.806427 1583.676514,342.042542 1570.165771,348.335205 
	C1567.254272,349.691254 1564.220215,350.783661 1560.808472,352.004578 
z"/>
<path fill="#3B2E58" opacity="1.000000" stroke="none" 
	d="
M1169.218262,276.994415 
	C1174.653198,276.998962 1179.608032,276.998962 1184.776367,276.998962 
	C1184.776367,281.684662 1184.776367,285.965759 1184.776367,290.703339 
	C1179.180054,290.703339 1173.442139,290.703339 1167.000000,290.703339 
	C1167.000000,297.384369 1167.000000,303.636017 1167.000000,309.887665 
	C1167.000000,315.716522 1166.989502,321.545441 1167.002197,327.374268 
	C1167.024292,337.459137 1172.832520,341.336731 1182.048218,337.464142 
	C1182.770508,337.160645 1183.609985,337.136017 1184.998413,336.863312 
	C1184.998413,340.918549 1185.214478,344.699585 1184.875366,348.430115 
	C1184.764038,349.655426 1183.388550,351.533234 1182.292480,351.778595 
	C1174.395874,353.546356 1166.409180,354.327972 1158.721680,350.885437 
	C1153.373535,348.490479 1150.213867,344.003418 1150.103516,338.302490 
	C1149.802490,322.752930 1150.000122,307.193695 1150.000122,291.184540 
	C1145.059814,291.184540 1141.318604,291.184540 1137.293213,291.184540 
	C1137.293213,286.340027 1137.293213,281.942688 1137.293213,277.086304 
	C1141.036865,277.086304 1144.782593,277.086304 1148.815430,277.086304 
	C1148.815430,271.373413 1148.815430,266.098328 1148.815430,260.406982 
	C1154.807617,258.783569 1160.616577,257.209808 1167.000000,255.480377 
	C1167.000000,261.892395 1166.894653,267.530945 1167.079102,273.159973 
	C1167.121460,274.453308 1168.158813,275.714111 1169.218262,276.994415 
z"/>
<path fill="#3B2E58" opacity="1.000000" stroke="none" 
	d="
M1317.046387,277.000000 
	C1319.496826,277.000000 1321.467896,277.000000 1323.858887,277.000000 
	C1323.858887,271.303864 1323.858887,265.879456 1323.858887,260.368835 
	C1329.958374,258.726898 1335.683960,257.185608 1341.933716,255.503204 
	C1341.933716,262.928314 1341.933716,269.697723 1341.933716,276.914612 
	C1348.040649,276.914612 1353.781616,276.914612 1359.753540,276.914612 
	C1359.753540,281.762695 1359.753540,286.157959 1359.753540,290.833801 
	C1353.979004,290.833801 1348.364380,290.833801 1342.000000,290.833801 
	C1342.000000,295.828461 1342.000000,300.577911 1342.000000,305.327332 
	C1342.000000,312.488556 1341.996704,319.649780 1342.000732,326.811005 
	C1342.006836,337.595551 1347.502441,341.307495 1357.439209,337.273590 
	C1358.018188,337.038544 1358.712769,337.088501 1359.996704,336.922821 
	C1359.996704,341.050049 1360.179565,344.978027 1359.876587,348.868134 
	C1359.793945,349.927582 1358.397217,351.529907 1357.351074,351.766602 
	C1349.278320,353.593323 1341.143921,354.328430 1333.332520,350.689301 
	C1328.182739,348.290161 1325.231567,343.797516 1325.116333,338.365143 
	C1324.786621,322.811005 1325.000366,307.245300 1325.000366,291.229462 
	C1320.102539,291.229462 1316.362427,291.229462 1312.315186,291.229462 
	C1312.315186,286.385620 1312.315186,281.988068 1312.315186,277.238800 
	C1313.691406,277.161499 1315.129150,277.080750 1317.046387,277.000000 
z"/>
<path fill="#3B2E58" opacity="1.000000" stroke="none" 
	d="
M774.000000,306.004120 
	C774.000000,300.863739 774.000000,296.222565 774.000000,291.127380 
	C770.005432,291.127380 766.257874,291.127380 762.263733,291.127380 
	C762.263733,286.275757 762.263733,281.876160 762.263733,277.016357 
	C766.108643,277.016357 769.856628,277.016357 773.873352,277.016357 
	C773.873352,271.287720 773.873352,266.002472 773.873352,260.377930 
	C779.528625,258.773285 784.997314,257.221558 790.890137,255.549500 
	C790.890137,262.989960 790.890137,269.629120 790.890137,276.727356 
	C796.845276,276.727356 802.586609,276.727356 808.661316,276.727356 
	C808.661316,281.576691 808.661316,285.975372 808.661316,290.838867 
	C803.037109,290.838867 797.297791,290.838867 792.024536,290.838867 
	C792.024536,305.154236 791.727905,319.013550 792.177185,332.848633 
	C792.346008,338.046600 799.385193,340.621918 805.206177,338.328369 
	C806.241272,337.920532 807.255493,337.459717 808.996887,336.717560 
	C808.996887,341.072296 809.212341,344.995605 808.861877,348.867676 
	C808.760559,349.987030 807.065857,351.822418 806.047485,351.859924 
	C799.067505,352.117157 792.009399,352.559174 785.103210,351.795471 
	C779.472229,351.172791 774.074585,342.447144 774.019409,335.501709 
	C773.942627,325.836151 774.000000,316.169525 774.000000,306.004120 
z"/>
<path fill="#3B2E58" opacity="1.000000" stroke="none" 
	d="
M384.353943,344.749634 
	C365.495178,326.704529 369.428101,285.936829 398.852203,277.658813 
	C408.477783,274.950806 418.254852,274.795563 427.817657,278.070160 
	C429.157654,278.528992 430.733643,280.511383 430.855438,281.905975 
	C431.244293,286.359283 430.999725,290.867920 430.999725,294.260651 
	C425.136627,292.861572 419.202667,290.725220 413.127716,290.190247 
	C406.504547,289.606964 400.690674,292.801178 396.576508,298.026337 
	C388.543701,308.228119 389.020813,324.467010 397.619415,333.028381 
	C403.601196,338.984253 416.115173,343.220184 430.977112,332.491699 
	C430.977112,337.923584 431.326111,342.804810 430.748444,347.573822 
	C430.590607,348.876801 427.794434,350.396179 425.962830,350.875580 
	C411.405731,354.685699 397.268219,354.975647 384.353943,344.749634 
z"/>
<path fill="#3B2E58" opacity="1.000000" stroke="none" 
	d="
M1264.000000,313.000000 
	C1264.000000,300.874878 1264.000000,289.249756 1264.000000,277.313049 
	C1269.953857,277.313049 1275.679077,277.313049 1281.834717,277.313049 
	C1281.834717,280.637451 1281.834717,284.026367 1281.834717,288.118805 
	C1284.439575,285.342682 1286.298218,282.911316 1288.606323,281.031647 
	C1290.808472,279.238373 1293.314575,277.530426 1295.973267,276.638092 
	C1305.000610,273.608276 1308.000000,275.819672 1308.000000,284.994690 
	C1308.000000,287.853760 1308.000000,290.712830 1308.000000,294.020294 
	C1295.792969,288.959808 1285.545044,293.713379 1283.301636,307.827728 
	C1281.475586,319.316711 1282.317871,331.231750 1282.010864,342.958771 
	C1281.937500,345.764374 1282.000000,348.573547 1282.000000,351.689514 
	C1276.040771,351.689514 1270.315796,351.689514 1264.000000,351.689514 
	C1264.000000,338.988129 1264.000000,326.244080 1264.000000,313.000000 
z"/>
<path fill="#3B2E58" opacity="1.000000" stroke="none" 
	d="
M454.913269,277.000000 
	C457.044373,277.000000 458.692871,277.000000 460.753235,277.000000 
	C460.753235,280.250580 460.753235,283.311218 460.753235,288.158264 
	C467.626465,277.884979 475.616150,273.596558 486.731995,277.298492 
	C486.731995,282.677460 486.731995,288.224792 486.731995,292.901093 
	C481.780579,292.901093 476.642212,291.700653 472.417358,293.154602 
	C463.994019,296.053406 461.394836,303.875458 461.120361,311.940002 
	C460.674072,325.055145 461.000000,338.196503 461.000000,351.663055 
	C455.098236,351.663055 449.370575,351.663055 443.319122,351.663055 
	C443.319122,327.076660 443.319122,302.375061 443.319122,277.000000 
	C446.926849,277.000000 450.678741,277.000000 454.913269,277.000000 
z"/>
<path fill="#3B2E58" opacity="1.000000" stroke="none" 
	d="
M986.000000,286.041534 
	C986.000000,282.905975 986.000000,280.264648 986.000000,277.312653 
	C991.623169,277.312653 997.014160,277.312653 1002.840210,277.312653 
	C1002.840210,280.635925 1002.840210,284.023926 1002.840210,288.581268 
	C1005.697388,285.347290 1007.781799,282.961060 1009.895508,280.601105 
	C1014.383423,275.590332 1020.302734,275.603455 1026.249390,276.245575 
	C1027.252197,276.353882 1028.814941,278.004211 1028.871216,279.011719 
	C1029.145142,283.921295 1028.995239,288.854584 1028.995239,293.945374 
	C1015.571716,289.292847 1005.479492,295.137421 1004.150391,308.812317 
	C1003.066101,319.967102 1003.314575,331.252747 1003.012085,342.481445 
	C1002.932068,345.450928 1003.000000,348.424377 1003.000000,351.696808 
	C997.357605,351.696808 991.967041,351.696808 986.000000,351.696808 
	C986.000000,329.987762 986.000000,308.261780 986.000000,286.041534 
z"/>
<path fill="#3B2E58" opacity="1.000000" stroke="none" 
	d="
M344.258789,277.052124 
	C350.019562,277.010193 355.300751,277.010193 360.785217,277.010193 
	C360.785217,302.138245 360.785217,326.842072 360.785217,351.773010 
	C354.990601,351.773010 349.381958,351.773010 343.464905,351.773010 
	C343.338593,351.201660 343.026642,350.446533 343.025757,349.691010 
	C342.998535,326.560059 342.991547,303.429077 343.033508,280.298187 
	C343.035461,279.229706 343.519623,278.162048 344.258789,277.052124 
z"/>
<path fill="#3B2E58" opacity="1.000000" stroke="none" 
	d="
M351.165527,243.000153 
	C357.860229,243.140869 362.637146,247.239624 362.929047,252.735733 
	C363.193634,257.717957 358.190399,262.685303 352.592010,262.998657 
	C347.890991,263.261780 342.526825,259.793335 342.005890,256.153717 
	C340.908661,248.487701 343.687012,244.307663 351.165527,243.000153 
z"/>
<path fill="#FFFFFF" opacity="1.000000" stroke="none" 
	d="
M2157.823975,586.704102 
	C2167.182861,581.256714 2176.726318,579.542847 2186.969238,582.451111 
	C2200.891602,586.404114 2207.703857,596.740051 2210.797363,609.821838 
	C2214.913818,627.228821 2213.674072,644.655762 2206.343750,660.878174 
	C2197.560059,680.316589 2176.839355,687.498108 2158.564697,677.999939 
	C2146.965576,671.971252 2141.003906,661.363037 2140.131104,648.475891 
	C2139.468994,638.700562 2139.580322,628.822083 2140.102051,619.029724 
	C2140.811035,605.728210 2146.334229,594.706665 2157.823975,586.704102 
z"/>
<path fill="#FFFFFF" opacity="1.000000" stroke="none" 
	d="
M1068.968262,607.252808 
	C1069.626587,618.516907 1070.971313,629.394592 1070.630371,640.219238 
	C1070.314087,650.263611 1067.012329,659.892761 1060.924927,668.146240 
	C1046.731567,687.390198 1018.150818,685.732361 1006.432495,668.137878 
	C1000.949402,659.905273 998.970886,651.000977 997.837769,641.400818 
	C996.375854,629.014893 998.189575,617.218018 1002.026367,605.608521 
	C1006.927063,590.780029 1020.411743,581.000916 1035.496094,581.000000 
	C1050.049683,580.999084 1063.210815,590.539246 1068.010376,604.558289 
	C1068.275513,605.332825 1068.614502,606.082214 1068.968262,607.252808 
z"/>
<path fill="#FFFFFF" opacity="1.000000" stroke="none" 
	d="
M445.574707,679.787476 
	C428.681091,672.594055 422.780304,658.972473 420.808411,642.156860 
	C419.533813,631.287781 420.432251,620.877747 422.985596,610.435974 
	C427.919098,590.260803 446.819092,578.158203 467.975372,581.706848 
	C486.617096,584.833740 495.285034,597.497131 497.886200,613.564575 
	C500.192566,627.811157 500.324646,642.235535 495.926849,656.188660 
	C489.744751,675.802856 474.100281,684.098450 454.109650,681.552063 
	C451.365631,681.202515 448.669220,680.479431 445.574707,679.787476 
z"/>
<path fill="#FFFFFF" opacity="1.000000" stroke="none" 
	d="
M1217.829834,577.613586 
	C1229.323608,574.216003 1239.320679,576.341675 1247.769165,584.343933 
	C1253.295532,589.578430 1254.726440,596.762512 1255.956665,603.883972 
	C1256.426025,606.601624 1256.422729,609.400879 1256.666626,612.578125 
	C1235.671143,612.578125 1214.539185,612.578125 1193.406616,612.578125 
	C1192.854248,599.517761 1205.485229,581.334473 1217.829834,577.613586 
z"/>
<path fill="#FFFFFF" opacity="1.000000" stroke="none" 
	d="
M1471.767944,294.726868 
	C1479.915039,288.282379 1488.546143,288.022491 1494.292603,293.433289 
	C1498.000244,296.924255 1500.862305,302.543396 1501.678223,307.600159 
	C1503.057251,316.146851 1501.776489,324.648438 1496.427734,332.322815 
	C1490.105225,341.394073 1475.397583,341.240723 1469.177979,332.458191 
	C1462.255249,322.682617 1463.365723,306.224182 1471.767944,294.726868 
z"/>
<path fill="#FFFFFF" opacity="1.000000" stroke="none" 
	d="
M685.329102,331.230713 
	C679.852295,341.158234 660.727966,343.013367 653.232361,330.160156 
	C647.366150,320.101074 647.309509,309.344330 653.527832,298.787964 
	C658.057861,291.097809 667.401367,288.850739 674.364319,290.236450 
	C681.758057,291.707886 687.586121,298.794312 689.033203,306.514679 
	C690.643677,315.106384 689.958496,323.256592 685.329102,331.230713 
z"/>
<path fill="#FFFFFF" opacity="1.000000" stroke="none" 
	d="
M943.459106,337.830933 
	C928.553101,341.960449 918.249268,334.676788 916.197449,320.694916 
	C915.196228,313.872009 915.243408,306.688477 918.921021,300.099854 
	C923.390991,292.091797 930.320557,288.985992 938.919800,290.126068 
	C946.706665,291.158356 951.939697,295.515839 954.355103,303.601044 
	C956.807861,311.811493 956.958435,319.901367 953.531006,327.401489 
	C951.678589,331.455139 947.153503,334.287415 943.459106,337.830933 
z"/>
<path fill="#FFFFFF" opacity="1.000000" stroke="none" 
	d="
M506.000000,317.769775 
	C505.840515,310.398712 506.032227,303.713165 510.560547,297.745667 
	C515.002014,291.892670 523.341736,288.125336 530.841492,290.103760 
	C538.140015,292.029053 543.213379,297.068512 544.831238,304.341736 
	C546.635132,312.451050 547.265991,320.701447 543.120789,328.676208 
	C537.938660,338.645874 531.752441,339.563629 522.937561,338.941864 
	C516.374695,338.478973 508.791901,331.612244 507.063477,324.937683 
	C506.498962,322.757812 506.342896,320.472168 506.000000,317.769775 
z"/>
<path fill="#FFFFFF" opacity="1.000000" stroke="none" 
	d="
M1212.876953,338.395264 
	C1208.114258,336.298859 1206.773071,332.561951 1207.066650,328.235931 
	C1207.366211,323.820831 1209.933228,320.458252 1214.163940,319.466187 
	C1221.183838,317.820038 1228.364502,316.859467 1235.423706,315.619568 
	C1238.677368,330.618835 1226.316040,344.019226 1212.876953,338.395264 
z"/>
</svg>